<?xml version="1.0" encoding="utf-8" standalone="no"?>
<!DOCTYPE svg PUBLIC "-//W3C//DTD SVG 1.1//EN"
  "http://www.w3.org/Graphics/SVG/1.1/DTD/svg11.dtd">
<svg xmlns:xlink="http://www.w3.org/1999/xlink" width="460.8pt" height="345.6pt" viewBox="0 0 460.8 345.6" xmlns="http://www.w3.org/2000/svg" version="1.1">
 <metadata>
  <rdf:RDF xmlns:dc="http://purl.org/dc/elements/1.1/" xmlns:cc="http://creativecommons.org/ns#" xmlns:rdf="http://www.w3.org/1999/02/22-rdf-syntax-ns#">
   <cc:Work>
    <dc:type rdf:resource="http://purl.org/dc/dcmitype/StillImage"/>
    <dc:date>2023-11-18T16:27:03.523344</dc:date>
    <dc:format>image/svg+xml</dc:format>
    <dc:creator>
     <cc:Agent>
      <dc:title>Matplotlib v3.7.3, https://matplotlib.org/</dc:title>
     </cc:Agent>
    </dc:creator>
   </cc:Work>
  </rdf:RDF>
 </metadata>
 <defs>
  <style type="text/css">*{stroke-linejoin: round; stroke-linecap: butt}</style>
 </defs>
 <g id="figure_1">
  <g id="patch_1">
   <path d="M 0 345.6 
L 460.8 345.6 
L 460.8 0 
L 0 0 
z
" style="fill: #ffffff"/>
  </g>
  <g id="axes_1">
   <g id="patch_2">
    <path d="M 54.3744 303.7824 
L 450.2016 303.7824 
L 450.2016 10.7136 
L 54.3744 10.7136 
z
" style="fill: #ffffff"/>
   </g>
   <g id="matplotlib.axis_1">
    <g id="xtick_1">
     <g id="line2d_1">
      <defs>
       <path id="mda531abb8c" d="M 0 0 
L 0 3.5 
" style="stroke: #000000; stroke-width: 0.8"/>
      </defs>
      <g>
       <use xlink:href="#mda531abb8c" x="66.654753" y="303.7824" style="stroke: #000000; stroke-width: 0.8"/>
      </g>
     </g>
     <g id="text_1">
      <!-- 0 -->
      <g transform="translate(63.473503 318.380837) scale(0.1 -0.1)">
       <defs>
        <path id="DejaVuSans-30" d="M 2034 4250 
Q 1547 4250 1301 3770 
Q 1056 3291 1056 2328 
Q 1056 1369 1301 889 
Q 1547 409 2034 409 
Q 2525 409 2770 889 
Q 3016 1369 3016 2328 
Q 3016 3291 2770 3770 
Q 2525 4250 2034 4250 
z
M 2034 4750 
Q 2819 4750 3233 4129 
Q 3647 3509 3647 2328 
Q 3647 1150 3233 529 
Q 2819 -91 2034 -91 
Q 1250 -91 836 529 
Q 422 1150 422 2328 
Q 422 3509 836 4129 
Q 1250 4750 2034 4750 
z
" transform="scale(0.015625)"/>
       </defs>
       <use xlink:href="#DejaVuSans-30"/>
      </g>
     </g>
    </g>
    <g id="xtick_2">
     <g id="line2d_2">
      <g>
       <use xlink:href="#mda531abb8c" x="138.052156" y="303.7824" style="stroke: #000000; stroke-width: 0.8"/>
      </g>
     </g>
     <g id="text_2">
      <!-- 100 -->
      <g transform="translate(128.508406 318.380837) scale(0.1 -0.1)">
       <defs>
        <path id="DejaVuSans-31" d="M 794 531 
L 1825 531 
L 1825 4091 
L 703 3866 
L 703 4441 
L 1819 4666 
L 2450 4666 
L 2450 531 
L 3481 531 
L 3481 0 
L 794 0 
L 794 531 
z
" transform="scale(0.015625)"/>
       </defs>
       <use xlink:href="#DejaVuSans-31"/>
       <use xlink:href="#DejaVuSans-30" x="63.623047"/>
       <use xlink:href="#DejaVuSans-30" x="127.246094"/>
      </g>
     </g>
    </g>
    <g id="xtick_3">
     <g id="line2d_3">
      <g>
       <use xlink:href="#mda531abb8c" x="209.449558" y="303.7824" style="stroke: #000000; stroke-width: 0.8"/>
      </g>
     </g>
     <g id="text_3">
      <!-- 200 -->
      <g transform="translate(199.905808 318.380837) scale(0.1 -0.1)">
       <defs>
        <path id="DejaVuSans-32" d="M 1228 531 
L 3431 531 
L 3431 0 
L 469 0 
L 469 531 
Q 828 903 1448 1529 
Q 2069 2156 2228 2338 
Q 2531 2678 2651 2914 
Q 2772 3150 2772 3378 
Q 2772 3750 2511 3984 
Q 2250 4219 1831 4219 
Q 1534 4219 1204 4116 
Q 875 4013 500 3803 
L 500 4441 
Q 881 4594 1212 4672 
Q 1544 4750 1819 4750 
Q 2544 4750 2975 4387 
Q 3406 4025 3406 3419 
Q 3406 3131 3298 2873 
Q 3191 2616 2906 2266 
Q 2828 2175 2409 1742 
Q 1991 1309 1228 531 
z
" transform="scale(0.015625)"/>
       </defs>
       <use xlink:href="#DejaVuSans-32"/>
       <use xlink:href="#DejaVuSans-30" x="63.623047"/>
       <use xlink:href="#DejaVuSans-30" x="127.246094"/>
      </g>
     </g>
    </g>
    <g id="xtick_4">
     <g id="line2d_4">
      <g>
       <use xlink:href="#mda531abb8c" x="280.846961" y="303.7824" style="stroke: #000000; stroke-width: 0.8"/>
      </g>
     </g>
     <g id="text_4">
      <!-- 300 -->
      <g transform="translate(271.303211 318.380837) scale(0.1 -0.1)">
       <defs>
        <path id="DejaVuSans-33" d="M 2597 2516 
Q 3050 2419 3304 2112 
Q 3559 1806 3559 1356 
Q 3559 666 3084 287 
Q 2609 -91 1734 -91 
Q 1441 -91 1130 -33 
Q 819 25 488 141 
L 488 750 
Q 750 597 1062 519 
Q 1375 441 1716 441 
Q 2309 441 2620 675 
Q 2931 909 2931 1356 
Q 2931 1769 2642 2001 
Q 2353 2234 1838 2234 
L 1294 2234 
L 1294 2753 
L 1863 2753 
Q 2328 2753 2575 2939 
Q 2822 3125 2822 3475 
Q 2822 3834 2567 4026 
Q 2313 4219 1838 4219 
Q 1578 4219 1281 4162 
Q 984 4106 628 3988 
L 628 4550 
Q 988 4650 1302 4700 
Q 1616 4750 1894 4750 
Q 2613 4750 3031 4423 
Q 3450 4097 3450 3541 
Q 3450 3153 3228 2886 
Q 3006 2619 2597 2516 
z
" transform="scale(0.015625)"/>
       </defs>
       <use xlink:href="#DejaVuSans-33"/>
       <use xlink:href="#DejaVuSans-30" x="63.623047"/>
       <use xlink:href="#DejaVuSans-30" x="127.246094"/>
      </g>
     </g>
    </g>
    <g id="xtick_5">
     <g id="line2d_5">
      <g>
       <use xlink:href="#mda531abb8c" x="352.244364" y="303.7824" style="stroke: #000000; stroke-width: 0.8"/>
      </g>
     </g>
     <g id="text_5">
      <!-- 400 -->
      <g transform="translate(342.700614 318.380837) scale(0.1 -0.1)">
       <defs>
        <path id="DejaVuSans-34" d="M 2419 4116 
L 825 1625 
L 2419 1625 
L 2419 4116 
z
M 2253 4666 
L 3047 4666 
L 3047 1625 
L 3713 1625 
L 3713 1100 
L 3047 1100 
L 3047 0 
L 2419 0 
L 2419 1100 
L 313 1100 
L 313 1709 
L 2253 4666 
z
" transform="scale(0.015625)"/>
       </defs>
       <use xlink:href="#DejaVuSans-34"/>
       <use xlink:href="#DejaVuSans-30" x="63.623047"/>
       <use xlink:href="#DejaVuSans-30" x="127.246094"/>
      </g>
     </g>
    </g>
    <g id="xtick_6">
     <g id="line2d_6">
      <g>
       <use xlink:href="#mda531abb8c" x="423.641766" y="303.7824" style="stroke: #000000; stroke-width: 0.8"/>
      </g>
     </g>
     <g id="text_6">
      <!-- 500 -->
      <g transform="translate(414.098016 318.380837) scale(0.1 -0.1)">
       <defs>
        <path id="DejaVuSans-35" d="M 691 4666 
L 3169 4666 
L 3169 4134 
L 1269 4134 
L 1269 2991 
Q 1406 3038 1543 3061 
Q 1681 3084 1819 3084 
Q 2600 3084 3056 2656 
Q 3513 2228 3513 1497 
Q 3513 744 3044 326 
Q 2575 -91 1722 -91 
Q 1428 -91 1123 -41 
Q 819 9 494 109 
L 494 744 
Q 775 591 1075 516 
Q 1375 441 1709 441 
Q 2250 441 2565 725 
Q 2881 1009 2881 1497 
Q 2881 1984 2565 2268 
Q 2250 2553 1709 2553 
Q 1456 2553 1204 2497 
Q 953 2441 691 2322 
L 691 4666 
z
" transform="scale(0.015625)"/>
       </defs>
       <use xlink:href="#DejaVuSans-35"/>
       <use xlink:href="#DejaVuSans-30" x="63.623047"/>
       <use xlink:href="#DejaVuSans-30" x="127.246094"/>
      </g>
     </g>
    </g>
    <g id="text_7">
     <!-- Number of keys per node -->
     <g transform="translate(188.886437 332.058962) scale(0.1 -0.1)">
      <defs>
       <path id="DejaVuSans-4e" d="M 628 4666 
L 1478 4666 
L 3547 763 
L 3547 4666 
L 4159 4666 
L 4159 0 
L 3309 0 
L 1241 3903 
L 1241 0 
L 628 0 
L 628 4666 
z
" transform="scale(0.015625)"/>
       <path id="DejaVuSans-75" d="M 544 1381 
L 544 3500 
L 1119 3500 
L 1119 1403 
Q 1119 906 1312 657 
Q 1506 409 1894 409 
Q 2359 409 2629 706 
Q 2900 1003 2900 1516 
L 2900 3500 
L 3475 3500 
L 3475 0 
L 2900 0 
L 2900 538 
Q 2691 219 2414 64 
Q 2138 -91 1772 -91 
Q 1169 -91 856 284 
Q 544 659 544 1381 
z
M 1991 3584 
L 1991 3584 
z
" transform="scale(0.015625)"/>
       <path id="DejaVuSans-6d" d="M 3328 2828 
Q 3544 3216 3844 3400 
Q 4144 3584 4550 3584 
Q 5097 3584 5394 3201 
Q 5691 2819 5691 2113 
L 5691 0 
L 5113 0 
L 5113 2094 
Q 5113 2597 4934 2840 
Q 4756 3084 4391 3084 
Q 3944 3084 3684 2787 
Q 3425 2491 3425 1978 
L 3425 0 
L 2847 0 
L 2847 2094 
Q 2847 2600 2669 2842 
Q 2491 3084 2119 3084 
Q 1678 3084 1418 2786 
Q 1159 2488 1159 1978 
L 1159 0 
L 581 0 
L 581 3500 
L 1159 3500 
L 1159 2956 
Q 1356 3278 1631 3431 
Q 1906 3584 2284 3584 
Q 2666 3584 2933 3390 
Q 3200 3197 3328 2828 
z
" transform="scale(0.015625)"/>
       <path id="DejaVuSans-62" d="M 3116 1747 
Q 3116 2381 2855 2742 
Q 2594 3103 2138 3103 
Q 1681 3103 1420 2742 
Q 1159 2381 1159 1747 
Q 1159 1113 1420 752 
Q 1681 391 2138 391 
Q 2594 391 2855 752 
Q 3116 1113 3116 1747 
z
M 1159 2969 
Q 1341 3281 1617 3432 
Q 1894 3584 2278 3584 
Q 2916 3584 3314 3078 
Q 3713 2572 3713 1747 
Q 3713 922 3314 415 
Q 2916 -91 2278 -91 
Q 1894 -91 1617 61 
Q 1341 213 1159 525 
L 1159 0 
L 581 0 
L 581 4863 
L 1159 4863 
L 1159 2969 
z
" transform="scale(0.015625)"/>
       <path id="DejaVuSans-65" d="M 3597 1894 
L 3597 1613 
L 953 1613 
Q 991 1019 1311 708 
Q 1631 397 2203 397 
Q 2534 397 2845 478 
Q 3156 559 3463 722 
L 3463 178 
Q 3153 47 2828 -22 
Q 2503 -91 2169 -91 
Q 1331 -91 842 396 
Q 353 884 353 1716 
Q 353 2575 817 3079 
Q 1281 3584 2069 3584 
Q 2775 3584 3186 3129 
Q 3597 2675 3597 1894 
z
M 3022 2063 
Q 3016 2534 2758 2815 
Q 2500 3097 2075 3097 
Q 1594 3097 1305 2825 
Q 1016 2553 972 2059 
L 3022 2063 
z
" transform="scale(0.015625)"/>
       <path id="DejaVuSans-72" d="M 2631 2963 
Q 2534 3019 2420 3045 
Q 2306 3072 2169 3072 
Q 1681 3072 1420 2755 
Q 1159 2438 1159 1844 
L 1159 0 
L 581 0 
L 581 3500 
L 1159 3500 
L 1159 2956 
Q 1341 3275 1631 3429 
Q 1922 3584 2338 3584 
Q 2397 3584 2469 3576 
Q 2541 3569 2628 3553 
L 2631 2963 
z
" transform="scale(0.015625)"/>
       <path id="DejaVuSans-20" transform="scale(0.015625)"/>
       <path id="DejaVuSans-6f" d="M 1959 3097 
Q 1497 3097 1228 2736 
Q 959 2375 959 1747 
Q 959 1119 1226 758 
Q 1494 397 1959 397 
Q 2419 397 2687 759 
Q 2956 1122 2956 1747 
Q 2956 2369 2687 2733 
Q 2419 3097 1959 3097 
z
M 1959 3584 
Q 2709 3584 3137 3096 
Q 3566 2609 3566 1747 
Q 3566 888 3137 398 
Q 2709 -91 1959 -91 
Q 1206 -91 779 398 
Q 353 888 353 1747 
Q 353 2609 779 3096 
Q 1206 3584 1959 3584 
z
" transform="scale(0.015625)"/>
       <path id="DejaVuSans-66" d="M 2375 4863 
L 2375 4384 
L 1825 4384 
Q 1516 4384 1395 4259 
Q 1275 4134 1275 3809 
L 1275 3500 
L 2222 3500 
L 2222 3053 
L 1275 3053 
L 1275 0 
L 697 0 
L 697 3053 
L 147 3053 
L 147 3500 
L 697 3500 
L 697 3744 
Q 697 4328 969 4595 
Q 1241 4863 1831 4863 
L 2375 4863 
z
" transform="scale(0.015625)"/>
       <path id="DejaVuSans-6b" d="M 581 4863 
L 1159 4863 
L 1159 1991 
L 2875 3500 
L 3609 3500 
L 1753 1863 
L 3688 0 
L 2938 0 
L 1159 1709 
L 1159 0 
L 581 0 
L 581 4863 
z
" transform="scale(0.015625)"/>
       <path id="DejaVuSans-79" d="M 2059 -325 
Q 1816 -950 1584 -1140 
Q 1353 -1331 966 -1331 
L 506 -1331 
L 506 -850 
L 844 -850 
Q 1081 -850 1212 -737 
Q 1344 -625 1503 -206 
L 1606 56 
L 191 3500 
L 800 3500 
L 1894 763 
L 2988 3500 
L 3597 3500 
L 2059 -325 
z
" transform="scale(0.015625)"/>
       <path id="DejaVuSans-73" d="M 2834 3397 
L 2834 2853 
Q 2591 2978 2328 3040 
Q 2066 3103 1784 3103 
Q 1356 3103 1142 2972 
Q 928 2841 928 2578 
Q 928 2378 1081 2264 
Q 1234 2150 1697 2047 
L 1894 2003 
Q 2506 1872 2764 1633 
Q 3022 1394 3022 966 
Q 3022 478 2636 193 
Q 2250 -91 1575 -91 
Q 1294 -91 989 -36 
Q 684 19 347 128 
L 347 722 
Q 666 556 975 473 
Q 1284 391 1588 391 
Q 1994 391 2212 530 
Q 2431 669 2431 922 
Q 2431 1156 2273 1281 
Q 2116 1406 1581 1522 
L 1381 1569 
Q 847 1681 609 1914 
Q 372 2147 372 2553 
Q 372 3047 722 3315 
Q 1072 3584 1716 3584 
Q 2034 3584 2315 3537 
Q 2597 3491 2834 3397 
z
" transform="scale(0.015625)"/>
       <path id="DejaVuSans-70" d="M 1159 525 
L 1159 -1331 
L 581 -1331 
L 581 3500 
L 1159 3500 
L 1159 2969 
Q 1341 3281 1617 3432 
Q 1894 3584 2278 3584 
Q 2916 3584 3314 3078 
Q 3713 2572 3713 1747 
Q 3713 922 3314 415 
Q 2916 -91 2278 -91 
Q 1894 -91 1617 61 
Q 1341 213 1159 525 
z
M 3116 1747 
Q 3116 2381 2855 2742 
Q 2594 3103 2138 3103 
Q 1681 3103 1420 2742 
Q 1159 2381 1159 1747 
Q 1159 1113 1420 752 
Q 1681 391 2138 391 
Q 2594 391 2855 752 
Q 3116 1113 3116 1747 
z
" transform="scale(0.015625)"/>
       <path id="DejaVuSans-6e" d="M 3513 2113 
L 3513 0 
L 2938 0 
L 2938 2094 
Q 2938 2591 2744 2837 
Q 2550 3084 2163 3084 
Q 1697 3084 1428 2787 
Q 1159 2491 1159 1978 
L 1159 0 
L 581 0 
L 581 3500 
L 1159 3500 
L 1159 2956 
Q 1366 3272 1645 3428 
Q 1925 3584 2291 3584 
Q 2894 3584 3203 3211 
Q 3513 2838 3513 2113 
z
" transform="scale(0.015625)"/>
       <path id="DejaVuSans-64" d="M 2906 2969 
L 2906 4863 
L 3481 4863 
L 3481 0 
L 2906 0 
L 2906 525 
Q 2725 213 2448 61 
Q 2172 -91 1784 -91 
Q 1150 -91 751 415 
Q 353 922 353 1747 
Q 353 2572 751 3078 
Q 1150 3584 1784 3584 
Q 2172 3584 2448 3432 
Q 2725 3281 2906 2969 
z
M 947 1747 
Q 947 1113 1208 752 
Q 1469 391 1925 391 
Q 2381 391 2643 752 
Q 2906 1113 2906 1747 
Q 2906 2381 2643 2742 
Q 2381 3103 1925 3103 
Q 1469 3103 1208 2742 
Q 947 2381 947 1747 
z
" transform="scale(0.015625)"/>
      </defs>
      <use xlink:href="#DejaVuSans-4e"/>
      <use xlink:href="#DejaVuSans-75" x="74.804688"/>
      <use xlink:href="#DejaVuSans-6d" x="138.183594"/>
      <use xlink:href="#DejaVuSans-62" x="235.595703"/>
      <use xlink:href="#DejaVuSans-65" x="299.072266"/>
      <use xlink:href="#DejaVuSans-72" x="360.595703"/>
      <use xlink:href="#DejaVuSans-20" x="401.708984"/>
      <use xlink:href="#DejaVuSans-6f" x="433.496094"/>
      <use xlink:href="#DejaVuSans-66" x="494.677734"/>
      <use xlink:href="#DejaVuSans-20" x="529.882812"/>
      <use xlink:href="#DejaVuSans-6b" x="561.669922"/>
      <use xlink:href="#DejaVuSans-65" x="615.955078"/>
      <use xlink:href="#DejaVuSans-79" x="677.478516"/>
      <use xlink:href="#DejaVuSans-73" x="736.658203"/>
      <use xlink:href="#DejaVuSans-20" x="788.757812"/>
      <use xlink:href="#DejaVuSans-70" x="820.544922"/>
      <use xlink:href="#DejaVuSans-65" x="884.021484"/>
      <use xlink:href="#DejaVuSans-72" x="945.544922"/>
      <use xlink:href="#DejaVuSans-20" x="986.658203"/>
      <use xlink:href="#DejaVuSans-6e" x="1018.445312"/>
      <use xlink:href="#DejaVuSans-6f" x="1081.824219"/>
      <use xlink:href="#DejaVuSans-64" x="1143.005859"/>
      <use xlink:href="#DejaVuSans-65" x="1206.482422"/>
     </g>
    </g>
   </g>
   <g id="matplotlib.axis_2">
    <g id="ytick_1">
     <g id="line2d_7">
      <defs>
       <path id="mc37976179b" d="M 0 0 
L -3.5 0 
" style="stroke: #000000; stroke-width: 0.8"/>
      </defs>
      <g>
       <use xlink:href="#mc37976179b" x="54.3744" y="272.794764" style="stroke: #000000; stroke-width: 0.8"/>
      </g>
     </g>
     <g id="text_8">
      <!-- 0.05 -->
      <g transform="translate(25.108775 276.593983) scale(0.1 -0.1)">
       <defs>
        <path id="DejaVuSans-2e" d="M 684 794 
L 1344 794 
L 1344 0 
L 684 0 
L 684 794 
z
" transform="scale(0.015625)"/>
       </defs>
       <use xlink:href="#DejaVuSans-30"/>
       <use xlink:href="#DejaVuSans-2e" x="63.623047"/>
       <use xlink:href="#DejaVuSans-30" x="95.410156"/>
       <use xlink:href="#DejaVuSans-35" x="159.033203"/>
      </g>
     </g>
    </g>
    <g id="ytick_2">
     <g id="line2d_8">
      <g>
       <use xlink:href="#mc37976179b" x="54.3744" y="239.341134" style="stroke: #000000; stroke-width: 0.8"/>
      </g>
     </g>
     <g id="text_9">
      <!-- 0.10 -->
      <g transform="translate(25.108775 243.140353) scale(0.1 -0.1)">
       <use xlink:href="#DejaVuSans-30"/>
       <use xlink:href="#DejaVuSans-2e" x="63.623047"/>
       <use xlink:href="#DejaVuSans-31" x="95.410156"/>
       <use xlink:href="#DejaVuSans-30" x="159.033203"/>
      </g>
     </g>
    </g>
    <g id="ytick_3">
     <g id="line2d_9">
      <g>
       <use xlink:href="#mc37976179b" x="54.3744" y="205.887504" style="stroke: #000000; stroke-width: 0.8"/>
      </g>
     </g>
     <g id="text_10">
      <!-- 0.15 -->
      <g transform="translate(25.108775 209.686723) scale(0.1 -0.1)">
       <use xlink:href="#DejaVuSans-30"/>
       <use xlink:href="#DejaVuSans-2e" x="63.623047"/>
       <use xlink:href="#DejaVuSans-31" x="95.410156"/>
       <use xlink:href="#DejaVuSans-35" x="159.033203"/>
      </g>
     </g>
    </g>
    <g id="ytick_4">
     <g id="line2d_10">
      <g>
       <use xlink:href="#mc37976179b" x="54.3744" y="172.433874" style="stroke: #000000; stroke-width: 0.8"/>
      </g>
     </g>
     <g id="text_11">
      <!-- 0.20 -->
      <g transform="translate(25.108775 176.233093) scale(0.1 -0.1)">
       <use xlink:href="#DejaVuSans-30"/>
       <use xlink:href="#DejaVuSans-2e" x="63.623047"/>
       <use xlink:href="#DejaVuSans-32" x="95.410156"/>
       <use xlink:href="#DejaVuSans-30" x="159.033203"/>
      </g>
     </g>
    </g>
    <g id="ytick_5">
     <g id="line2d_11">
      <g>
       <use xlink:href="#mc37976179b" x="54.3744" y="138.980244" style="stroke: #000000; stroke-width: 0.8"/>
      </g>
     </g>
     <g id="text_12">
      <!-- 0.25 -->
      <g transform="translate(25.108775 142.779463) scale(0.1 -0.1)">
       <use xlink:href="#DejaVuSans-30"/>
       <use xlink:href="#DejaVuSans-2e" x="63.623047"/>
       <use xlink:href="#DejaVuSans-32" x="95.410156"/>
       <use xlink:href="#DejaVuSans-35" x="159.033203"/>
      </g>
     </g>
    </g>
    <g id="ytick_6">
     <g id="line2d_12">
      <g>
       <use xlink:href="#mc37976179b" x="54.3744" y="105.526614" style="stroke: #000000; stroke-width: 0.8"/>
      </g>
     </g>
     <g id="text_13">
      <!-- 0.30 -->
      <g transform="translate(25.108775 109.325833) scale(0.1 -0.1)">
       <use xlink:href="#DejaVuSans-30"/>
       <use xlink:href="#DejaVuSans-2e" x="63.623047"/>
       <use xlink:href="#DejaVuSans-33" x="95.410156"/>
       <use xlink:href="#DejaVuSans-30" x="159.033203"/>
      </g>
     </g>
    </g>
    <g id="ytick_7">
     <g id="line2d_13">
      <g>
       <use xlink:href="#mc37976179b" x="54.3744" y="72.072984" style="stroke: #000000; stroke-width: 0.8"/>
      </g>
     </g>
     <g id="text_14">
      <!-- 0.35 -->
      <g transform="translate(25.108775 75.872202) scale(0.1 -0.1)">
       <use xlink:href="#DejaVuSans-30"/>
       <use xlink:href="#DejaVuSans-2e" x="63.623047"/>
       <use xlink:href="#DejaVuSans-33" x="95.410156"/>
       <use xlink:href="#DejaVuSans-35" x="159.033203"/>
      </g>
     </g>
    </g>
    <g id="ytick_8">
     <g id="line2d_14">
      <g>
       <use xlink:href="#mc37976179b" x="54.3744" y="38.619354" style="stroke: #000000; stroke-width: 0.8"/>
      </g>
     </g>
     <g id="text_15">
      <!-- 0.40 -->
      <g transform="translate(25.108775 42.418572) scale(0.1 -0.1)">
       <use xlink:href="#DejaVuSans-30"/>
       <use xlink:href="#DejaVuSans-2e" x="63.623047"/>
       <use xlink:href="#DejaVuSans-34" x="95.410156"/>
       <use xlink:href="#DejaVuSans-30" x="159.033203"/>
      </g>
     </g>
    </g>
    <g id="text_16">
     <!-- 10K random search (milliseconds) -->
     <g transform="translate(19.029087 242.420656) rotate(-90) scale(0.1 -0.1)">
      <defs>
       <path id="DejaVuSans-4b" d="M 628 4666 
L 1259 4666 
L 1259 2694 
L 3353 4666 
L 4166 4666 
L 1850 2491 
L 4331 0 
L 3500 0 
L 1259 2247 
L 1259 0 
L 628 0 
L 628 4666 
z
" transform="scale(0.015625)"/>
       <path id="DejaVuSans-61" d="M 2194 1759 
Q 1497 1759 1228 1600 
Q 959 1441 959 1056 
Q 959 750 1161 570 
Q 1363 391 1709 391 
Q 2188 391 2477 730 
Q 2766 1069 2766 1631 
L 2766 1759 
L 2194 1759 
z
M 3341 1997 
L 3341 0 
L 2766 0 
L 2766 531 
Q 2569 213 2275 61 
Q 1981 -91 1556 -91 
Q 1019 -91 701 211 
Q 384 513 384 1019 
Q 384 1609 779 1909 
Q 1175 2209 1959 2209 
L 2766 2209 
L 2766 2266 
Q 2766 2663 2505 2880 
Q 2244 3097 1772 3097 
Q 1472 3097 1187 3025 
Q 903 2953 641 2809 
L 641 3341 
Q 956 3463 1253 3523 
Q 1550 3584 1831 3584 
Q 2591 3584 2966 3190 
Q 3341 2797 3341 1997 
z
" transform="scale(0.015625)"/>
       <path id="DejaVuSans-63" d="M 3122 3366 
L 3122 2828 
Q 2878 2963 2633 3030 
Q 2388 3097 2138 3097 
Q 1578 3097 1268 2742 
Q 959 2388 959 1747 
Q 959 1106 1268 751 
Q 1578 397 2138 397 
Q 2388 397 2633 464 
Q 2878 531 3122 666 
L 3122 134 
Q 2881 22 2623 -34 
Q 2366 -91 2075 -91 
Q 1284 -91 818 406 
Q 353 903 353 1747 
Q 353 2603 823 3093 
Q 1294 3584 2113 3584 
Q 2378 3584 2631 3529 
Q 2884 3475 3122 3366 
z
" transform="scale(0.015625)"/>
       <path id="DejaVuSans-68" d="M 3513 2113 
L 3513 0 
L 2938 0 
L 2938 2094 
Q 2938 2591 2744 2837 
Q 2550 3084 2163 3084 
Q 1697 3084 1428 2787 
Q 1159 2491 1159 1978 
L 1159 0 
L 581 0 
L 581 4863 
L 1159 4863 
L 1159 2956 
Q 1366 3272 1645 3428 
Q 1925 3584 2291 3584 
Q 2894 3584 3203 3211 
Q 3513 2838 3513 2113 
z
" transform="scale(0.015625)"/>
       <path id="DejaVuSans-28" d="M 1984 4856 
Q 1566 4138 1362 3434 
Q 1159 2731 1159 2009 
Q 1159 1288 1364 580 
Q 1569 -128 1984 -844 
L 1484 -844 
Q 1016 -109 783 600 
Q 550 1309 550 2009 
Q 550 2706 781 3412 
Q 1013 4119 1484 4856 
L 1984 4856 
z
" transform="scale(0.015625)"/>
       <path id="DejaVuSans-69" d="M 603 3500 
L 1178 3500 
L 1178 0 
L 603 0 
L 603 3500 
z
M 603 4863 
L 1178 4863 
L 1178 4134 
L 603 4134 
L 603 4863 
z
" transform="scale(0.015625)"/>
       <path id="DejaVuSans-6c" d="M 603 4863 
L 1178 4863 
L 1178 0 
L 603 0 
L 603 4863 
z
" transform="scale(0.015625)"/>
       <path id="DejaVuSans-29" d="M 513 4856 
L 1013 4856 
Q 1481 4119 1714 3412 
Q 1947 2706 1947 2009 
Q 1947 1309 1714 600 
Q 1481 -109 1013 -844 
L 513 -844 
Q 928 -128 1133 580 
Q 1338 1288 1338 2009 
Q 1338 2731 1133 3434 
Q 928 4138 513 4856 
z
" transform="scale(0.015625)"/>
      </defs>
      <use xlink:href="#DejaVuSans-31"/>
      <use xlink:href="#DejaVuSans-30" x="63.623047"/>
      <use xlink:href="#DejaVuSans-4b" x="127.246094"/>
      <use xlink:href="#DejaVuSans-20" x="192.822266"/>
      <use xlink:href="#DejaVuSans-72" x="224.609375"/>
      <use xlink:href="#DejaVuSans-61" x="265.722656"/>
      <use xlink:href="#DejaVuSans-6e" x="327.001953"/>
      <use xlink:href="#DejaVuSans-64" x="390.380859"/>
      <use xlink:href="#DejaVuSans-6f" x="453.857422"/>
      <use xlink:href="#DejaVuSans-6d" x="515.039062"/>
      <use xlink:href="#DejaVuSans-20" x="612.451172"/>
      <use xlink:href="#DejaVuSans-73" x="644.238281"/>
      <use xlink:href="#DejaVuSans-65" x="696.337891"/>
      <use xlink:href="#DejaVuSans-61" x="757.861328"/>
      <use xlink:href="#DejaVuSans-72" x="819.140625"/>
      <use xlink:href="#DejaVuSans-63" x="858.003906"/>
      <use xlink:href="#DejaVuSans-68" x="912.984375"/>
      <use xlink:href="#DejaVuSans-20" x="976.363281"/>
      <use xlink:href="#DejaVuSans-28" x="1008.150391"/>
      <use xlink:href="#DejaVuSans-6d" x="1047.164062"/>
      <use xlink:href="#DejaVuSans-69" x="1144.576172"/>
      <use xlink:href="#DejaVuSans-6c" x="1172.359375"/>
      <use xlink:href="#DejaVuSans-6c" x="1200.142578"/>
      <use xlink:href="#DejaVuSans-69" x="1227.925781"/>
      <use xlink:href="#DejaVuSans-73" x="1255.708984"/>
      <use xlink:href="#DejaVuSans-65" x="1307.808594"/>
      <use xlink:href="#DejaVuSans-63" x="1369.332031"/>
      <use xlink:href="#DejaVuSans-6f" x="1424.3125"/>
      <use xlink:href="#DejaVuSans-6e" x="1485.494141"/>
      <use xlink:href="#DejaVuSans-64" x="1548.873047"/>
      <use xlink:href="#DejaVuSans-73" x="1612.349609"/>
      <use xlink:href="#DejaVuSans-29" x="1664.449219"/>
     </g>
    </g>
   </g>
   <g id="line2d_15">
    <path d="M 72.366545 278.446889 
L 78.078338 272.603342 
L 83.79013 268.013371 
L 89.501922 263.046577 
L 95.213714 256.045669 
L 100.925506 251.406922 
L 106.637299 246.793666 
L 112.349091 238.609169 
L 118.060883 235.010227 
L 123.772675 231.800017 
L 129.484468 235.694688 
L 135.19626 243.557697 
L 140.908052 245.31709 
L 146.619844 241.102066 
L 152.331636 237.885232 
L 158.043429 234.917226 
L 163.755221 230.184206 
L 169.467013 227.056961 
L 175.178805 214.852408 
L 180.890597 219.35259 
L 186.60239 216.27954 
L 192.314182 213.175712 
L 198.025974 208.547737 
L 203.737766 205.467326 
L 209.449558 202.273843 
L 215.161351 191.720561 
L 220.873143 154.166854 
L 226.584935 191.582732 
L 232.296727 186.853058 
L 238.008519 183.752575 
L 243.720312 180.777878 
L 249.432104 170.958569 
L 255.143896 172.555645 
L 260.855688 169.895412 
L 266.567481 165.257401 
L 272.279273 162.168962 
L 277.991065 159.087883 
L 283.702857 154.347503 
L 289.414649 151.366116 
L 295.126442 148.124459 
L 300.838234 143.655723 
L 306.550026 140.426779 
L 312.261818 137.226605 
L 317.97361 101.696173 
L 323.685403 129.634638 
L 329.397195 126.54553 
L 335.108987 121.910864 
L 340.820779 118.821755 
L 346.532571 115.69451 
L 352.244364 76.603943 
L 357.956156 105.395476 
L 363.667948 104.964593 
L 369.37974 100.347323 
L 375.091532 97.076896 
L 380.803325 64.88982 
L 386.515117 57.850507 
L 392.226909 86.319547 
L 397.938701 83.217057 
L 403.650494 78.639931 
L 409.362286 75.532089 
L 415.074078 32.234394 
L 420.78587 30.508187 
L 426.497662 25.645367 
L 432.209455 24.034909 
" clip-path="url(#p4aa0bdcea2)" style="fill: none; stroke-dasharray: 5.55,2.4; stroke-dashoffset: 0; stroke: #1f77b4; stroke-width: 1.5"/>
   </g>
   <g id="line2d_16">
    <path d="M 72.366545 277.179933 
L 78.078338 256.920147 
L 83.79013 245.7649 
L 89.501922 239.070829 
L 95.213714 230.994453 
L 100.925506 226.210584 
L 106.637299 222.15935 
L 112.349091 218.55171 
L 118.060883 214.107061 
L 123.772675 211.220013 
L 129.484468 207.177476 
L 135.19626 205.139481 
L 140.908052 202.509356 
L 146.619844 198.457453 
L 152.331636 195.689499 
L 158.043429 192.043723 
L 163.755221 189.172732 
L 169.467013 185.84878 
L 175.178805 180.924405 
L 180.890597 179.263767 
L 186.60239 174.784995 
L 192.314182 172.968463 
L 198.025974 170.320274 
L 203.737766 167.589788 
L 209.449558 164.336757 
L 215.161351 159.637191 
L 220.873143 156.948858 
L 226.584935 153.442917 
L 232.296727 147.710303 
L 238.008519 134.773115 
L 243.720312 140.698422 
L 249.432104 138.00206 
L 255.143896 134.743007 
L 260.855688 132.041961 
L 266.567481 130.037419 
L 272.279273 125.919947 
L 277.991065 118.821755 
L 283.702857 118.681919 
L 289.414649 110.992268 
L 295.126442 113.671904 
L 300.838234 109.672188 
L 306.550026 106.348904 
L 312.261818 103.240393 
L 317.97361 90.457092 
L 323.685403 98.768981 
L 329.397195 94.928504 
L 335.108987 90.600273 
L 340.820779 85.487889 
L 346.532571 83.10666 
L 352.244364 79.998818 
L 357.956156 76.507597 
L 363.667948 73.715557 
L 369.37974 70.100558 
L 375.091532 65.93625 
L 380.803325 64.050134 
L 386.515117 60.956342 
L 392.226909 56.587967 
L 397.938701 56.21128 
L 403.650494 52.261075 
L 409.362286 49.581439 
L 415.074078 46.758622 
L 420.78587 41.038051 
L 426.497662 38.46346 
L 432.209455 36.859024 
" clip-path="url(#p4aa0bdcea2)" style="fill: none; stroke-dasharray: 5.55,2.4; stroke-dashoffset: 0; stroke: #ff7f0e; stroke-width: 1.5"/>
   </g>
   <g id="line2d_17">
    <path d="M 72.366545 237.906642 
L 78.078338 206.151119 
L 83.79013 191.824936 
L 89.501922 182.689419 
L 95.213714 176.299775 
L 100.925506 168.091593 
L 106.637299 161.599581 
L 112.349091 160.347746 
L 118.060883 154.914877 
L 123.772675 152.393142 
L 129.484468 149.174234 
L 135.19626 147.592546 
L 140.908052 142.710993 
L 146.619844 137.858209 
L 152.331636 137.545752 
L 158.043429 132.041961 
L 163.755221 130.900523 
L 169.467013 129.407153 
L 175.178805 127.390568 
L 180.890597 124.818653 
L 186.60239 121.203654 
L 192.314182 121.291302 
L 198.025974 119.042549 
L 203.737766 117.641511 
L 209.449558 117.03667 
L 215.161351 115.000013 
L 220.873143 112.421407 
L 226.584935 112.106943 
L 232.296727 111.625211 
L 238.008519 110.404153 
L 243.720312 107.856994 
L 249.432104 106.072577 
L 255.143896 106.435214 
L 260.855688 103.548166 
L 266.567481 104.084762 
L 272.279273 102.04476 
L 277.991065 99.496932 
L 283.702857 99.032595 
L 289.414649 97.851682 
L 295.126442 97.172573 
L 300.838234 95.978948 
L 306.550026 95.346005 
L 312.261818 95.03221 
L 317.97361 94.753876 
L 323.685403 92.302394 
L 329.397195 91.765129 
L 335.108987 88.787755 
L 340.820779 86.399166 
L 346.532571 88.460579 
L 352.244364 86.453361 
L 357.956156 86.610593 
L 363.667948 84.076146 
L 369.37974 82.958126 
L 375.091532 82.333881 
L 380.803325 81.175047 
L 386.515117 79.270867 
L 392.226909 78.601794 
L 397.938701 77.657064 
L 403.650494 78.138796 
L 409.362286 75.768941 
L 415.074078 76.907702 
L 420.78587 74.826887 
L 426.497662 74.090907 
L 432.209455 71.620022 
" clip-path="url(#p4aa0bdcea2)" style="fill: none; stroke-dasharray: 1.5,2.475; stroke-dashoffset: 0; stroke: #2ca02c; stroke-width: 1.5"/>
   </g>
   <g id="line2d_18">
    <path d="M 72.366545 248.314 
L 78.078338 214.846386 
L 83.79013 200.815265 
L 89.501922 192.076507 
L 95.213714 184.34805 
L 100.925506 178.026652 
L 106.637299 170.082084 
L 112.349091 167.728286 
L 118.060883 163.806183 
L 123.772675 162.104062 
L 129.484468 158.677741 
L 135.19626 158.324471 
L 140.908052 152.160974 
L 146.619844 147.898313 
L 152.331636 146.225631 
L 158.043429 141.619066 
L 163.755221 140.474283 
L 169.467013 137.663509 
L 175.178805 136.997782 
L 180.890597 134.094007 
L 186.60239 131.780354 
L 192.314182 131.435781 
L 198.025974 130.129082 
L 203.737766 128.534682 
L 209.449558 127.052018 
L 215.161351 126.09056 
L 220.873143 123.988334 
L 226.584935 121.918893 
L 232.296727 121.977102 
L 238.008519 120.0669 
L 243.720312 118.318613 
L 249.432104 115.590135 
L 255.143896 115.327189 
L 260.855688 112.998817 
L 266.567481 113.210244 
L 272.279273 112.124339 
L 277.991065 109.969925 
L 283.702857 109.480833 
L 289.414649 106.977163 
L 295.126442 108.188854 
L 300.838234 105.81097 
L 306.550026 105.930065 
L 312.261818 106.138146 
L 317.97361 105.924043 
L 323.685403 104.176425 
L 329.397195 103.63916 
L 335.108987 100.505893 
L 340.820779 98.512057 
L 346.532571 99.464816 
L 352.244364 97.606132 
L 357.956156 96.971852 
L 363.667948 95.157327 
L 369.37974 93.097921 
L 375.091532 93.53148 
L 380.803325 91.506867 
L 386.515117 90.335989 
L 392.226909 87.607511 
L 397.938701 86.39649 
L 403.650494 86.379094 
L 409.362286 85.208217 
L 415.074078 84.343775 
L 420.78587 82.311802 
L 426.497662 83.708825 
L 432.209455 81.193112 
" clip-path="url(#p4aa0bdcea2)" style="fill: none; stroke-dasharray: 1.5,2.475; stroke-dashoffset: 0; stroke: #d62728; stroke-width: 1.5"/>
   </g>
   <g id="line2d_19">
    <path d="M 72.366545 259.568002 
L 78.078338 233.193695 
L 83.79013 218.809303 
L 89.501922 202.760259 
L 95.213714 196.553941 
L 100.925506 186.979512 
L 106.637299 186.743999 
L 112.349091 174.214276 
L 118.060883 170.525679 
L 123.772675 167.205072 
L 129.484468 162.344928 
L 135.19626 162.252596 
L 140.908052 157.039182 
L 146.619844 153.97483 
L 152.331636 147.702943 
L 158.043429 144.88481 
L 163.755221 142.884282 
L 169.467013 144.710182 
L 175.178805 140.728531 
L 180.890597 138.526613 
L 186.60239 136.991091 
L 192.314182 133.113146 
L 198.025974 130.836292 
L 203.737766 128.473128 
L 209.449558 127.563189 
L 215.161351 126.946973 
L 220.873143 123.047618 
L 226.584935 121.75497 
L 232.296727 123.668517 
L 238.008519 112.968708 
L 243.720312 116.27861 
L 249.432104 113.528053 
L 255.143896 116.184271 
L 260.855688 117.698383 
L 266.567481 113.359447 
L 272.279273 112.719813 
L 277.991065 111.204364 
L 283.702857 108.69668 
L 289.414649 107.863015 
L 295.126442 108.041658 
L 300.838234 106.057188 
L 306.550026 104.034582 
L 312.261818 104.878282 
L 317.97361 103.962322 
L 323.685403 103.026959 
L 329.397195 101.606517 
L 335.108987 97.233459 
L 340.820779 97.849675 
L 346.532571 100.571462 
L 352.244364 98.975724 
L 357.956156 98.768981 
L 363.667948 96.395111 
L 369.37974 97.897179 
L 375.091532 95.87658 
L 380.803325 94.660875 
L 386.515117 92.359934 
L 392.226909 92.801522 
L 397.938701 92.655664 
L 403.650494 90.170059 
L 409.362286 86.508225 
L 415.074078 87.315127 
L 420.78587 84.880371 
L 426.497662 86.646054 
L 432.209455 86.859488 
" clip-path="url(#p4aa0bdcea2)" style="fill: none; stroke-dasharray: 1.5,2.475; stroke-dashoffset: 0; stroke: #9467bd; stroke-width: 1.5"/>
   </g>
   <g id="line2d_20">
    <path d="M 72.366545 285.597134 
L 78.078338 281.324838 
L 83.79013 278.123325 
L 89.501922 275.180142 
L 95.213714 269.901895 
L 100.925506 267.328709 
L 106.637299 264.256327 
L 112.349091 259.619855 
L 118.060883 256.542121 
L 123.772675 253.329435 
L 129.484468 248.827446 
L 135.19626 245.736331 
L 140.908052 242.530269 
L 146.619844 238.019716 
L 152.331636 234.818872 
L 158.043429 223.419213 
L 163.755221 220.849975 
L 169.467013 217.677232 
L 175.178805 210.559638 
L 180.890597 207.444436 
L 186.60239 208.126221 
L 192.314182 204.372724 
L 198.025974 202.44914 
L 203.737766 198.432697 
L 209.449558 194.342656 
L 215.161351 192.144084 
L 220.873143 188.024604 
L 226.584935 184.956906 
L 232.296727 181.944741 
L 238.008519 179.276479 
L 243.720312 177.15485 
L 249.432104 170.915079 
L 255.143896 171.220845 
L 260.855688 170.621356 
L 266.567481 169.905449 
L 272.279273 169.80308 
L 277.991065 169.594999 
L 283.702857 169.639158 
L 289.414649 169.00956 
L 295.126442 166.301154 
L 300.838234 165.543095 
L 306.550026 163.10098 
L 312.261818 156.089768 
L 317.97361 161.202821 
L 323.685403 158.207383 
L 329.397195 154.358209 
L 335.108987 153.892534 
L 340.820779 151.556132 
L 346.532571 150.669611 
L 352.244364 150.063431 
L 357.956156 148.759409 
L 363.667948 146.984359 
L 369.37974 142.998694 
L 375.091532 143.343935 
L 380.803325 141.896731 
L 386.515117 139.065216 
L 392.226909 138.251624 
L 397.938701 137.728409 
L 403.650494 136.25578 
L 409.362286 136.285219 
L 415.074078 135.491699 
L 420.78587 133.816342 
L 426.497662 132.859568 
L 432.209455 141.175471 
" clip-path="url(#p4aa0bdcea2)" style="fill: none; stroke-dasharray: 9.6,2.4,1.5,2.4; stroke-dashoffset: 0; stroke: #8c564b; stroke-width: 1.5"/>
   </g>
   <g id="line2d_21">
    <path d="M 72.366545 290.461091 
L 78.078338 287.530821 
L 83.79013 282.765217 
L 89.501922 279.805441 
L 95.213714 276.606136 
L 100.925506 271.979031 
L 106.637299 269.016177 
L 112.349091 265.693964 
L 118.060883 261.156715 
L 123.772675 258.069547 
L 129.484468 254.89085 
L 135.19626 250.351326 
L 140.908052 247.294601 
L 146.619844 244.088606 
L 152.331636 239.573235 
L 158.043429 236.191809 
L 163.755221 215.779742 
L 169.467013 214.689823 
L 175.178805 212.405609 
L 180.890597 210.70951 
L 186.60239 208.951187 
L 192.314182 206.892451 
L 198.025974 205.956418 
L 203.737766 203.474159 
L 209.449558 201.710484 
L 215.161351 199.800281 
L 220.873143 198.391215 
L 226.584935 196.516473 
L 232.296727 194.933447 
L 238.008519 192.807804 
L 243.720312 190.65339 
L 249.432104 188.40263 
L 255.143896 182.645929 
L 260.855688 179.144672 
L 266.567481 177.562984 
L 272.279273 176.774148 
L 277.991065 175.27944 
L 283.702857 175.278102 
L 289.414649 173.801458 
L 295.126442 172.07592 
L 300.838234 169.737511 
L 306.550026 169.649194 
L 312.261818 167.616551 
L 317.97361 166.537337 
L 323.685403 165.822098 
L 329.397195 163.938659 
L 335.108987 163.654303 
L 340.820779 162.714256 
L 346.532571 161.316564 
L 352.244364 161.653107 
L 357.956156 160.178471 
L 363.667948 158.578049 
L 369.37974 158.153188 
L 375.091532 156.602947 
L 380.803325 155.531093 
L 386.515117 154.043075 
L 392.226909 153.50581 
L 397.938701 153.349916 
L 403.650494 151.79566 
L 409.362286 150.489631 
L 415.074078 148.471708 
L 420.78587 149.263221 
L 426.497662 147.422602 
L 432.209455 146.37082 
" clip-path="url(#p4aa0bdcea2)" style="fill: none; stroke-dasharray: 9.6,2.4,1.5,2.4; stroke-dashoffset: 0; stroke: #e377c2; stroke-width: 1.5"/>
   </g>
   <g id="patch_3">
    <path d="M 54.3744 303.7824 
L 54.3744 10.7136 
" style="fill: none; stroke: #000000; stroke-width: 0.8; stroke-linejoin: miter; stroke-linecap: square"/>
   </g>
   <g id="patch_4">
    <path d="M 450.2016 303.7824 
L 450.2016 10.7136 
" style="fill: none; stroke: #000000; stroke-width: 0.8; stroke-linejoin: miter; stroke-linecap: square"/>
   </g>
   <g id="patch_5">
    <path d="M 54.3744 303.7824 
L 450.2016 303.7824 
" style="fill: none; stroke: #000000; stroke-width: 0.8; stroke-linejoin: miter; stroke-linecap: square"/>
   </g>
   <g id="patch_6">
    <path d="M 54.3744 10.7136 
L 450.2016 10.7136 
" style="fill: none; stroke: #000000; stroke-width: 0.8; stroke-linejoin: miter; stroke-linecap: square"/>
   </g>
   <g id="legend_1">
    <g id="patch_7">
     <path d="M 313.660975 298.7824 
L 443.2016 298.7824 
Q 445.2016 298.7824 445.2016 296.7824 
L 445.2016 193.6449 
Q 445.2016 191.6449 443.2016 191.6449 
L 313.660975 191.6449 
Q 311.660975 191.6449 311.660975 193.6449 
L 311.660975 296.7824 
Q 311.660975 298.7824 313.660975 298.7824 
z
" style="fill: #ffffff; opacity: 0.8; stroke: #cccccc; stroke-linejoin: miter"/>
    </g>
    <g id="line2d_22">
     <path d="M 315.660975 199.743337 
L 325.660975 199.743337 
L 335.660975 199.743337 
" style="fill: none; stroke-dasharray: 5.55,2.4; stroke-dashoffset: 0; stroke: #1f77b4; stroke-width: 1.5"/>
    </g>
    <g id="text_17">
     <!-- sequential1 -->
     <g transform="translate(343.660975 203.243337) scale(0.1 -0.1)">
      <defs>
       <path id="DejaVuSans-71" d="M 947 1747 
Q 947 1113 1208 752 
Q 1469 391 1925 391 
Q 2381 391 2643 752 
Q 2906 1113 2906 1747 
Q 2906 2381 2643 2742 
Q 2381 3103 1925 3103 
Q 1469 3103 1208 2742 
Q 947 2381 947 1747 
z
M 2906 525 
Q 2725 213 2448 61 
Q 2172 -91 1784 -91 
Q 1150 -91 751 415 
Q 353 922 353 1747 
Q 353 2572 751 3078 
Q 1150 3584 1784 3584 
Q 2172 3584 2448 3432 
Q 2725 3281 2906 2969 
L 2906 3500 
L 3481 3500 
L 3481 -1331 
L 2906 -1331 
L 2906 525 
z
" transform="scale(0.015625)"/>
       <path id="DejaVuSans-74" d="M 1172 4494 
L 1172 3500 
L 2356 3500 
L 2356 3053 
L 1172 3053 
L 1172 1153 
Q 1172 725 1289 603 
Q 1406 481 1766 481 
L 2356 481 
L 2356 0 
L 1766 0 
Q 1100 0 847 248 
Q 594 497 594 1153 
L 594 3053 
L 172 3053 
L 172 3500 
L 594 3500 
L 594 4494 
L 1172 4494 
z
" transform="scale(0.015625)"/>
      </defs>
      <use xlink:href="#DejaVuSans-73"/>
      <use xlink:href="#DejaVuSans-65" x="52.099609"/>
      <use xlink:href="#DejaVuSans-71" x="113.623047"/>
      <use xlink:href="#DejaVuSans-75" x="177.099609"/>
      <use xlink:href="#DejaVuSans-65" x="240.478516"/>
      <use xlink:href="#DejaVuSans-6e" x="302.001953"/>
      <use xlink:href="#DejaVuSans-74" x="365.380859"/>
      <use xlink:href="#DejaVuSans-69" x="404.589844"/>
      <use xlink:href="#DejaVuSans-61" x="432.373047"/>
      <use xlink:href="#DejaVuSans-6c" x="493.652344"/>
      <use xlink:href="#DejaVuSans-31" x="521.435547"/>
     </g>
    </g>
    <g id="line2d_23">
     <path d="M 315.660975 214.421463 
L 325.660975 214.421463 
L 335.660975 214.421463 
" style="fill: none; stroke-dasharray: 5.55,2.4; stroke-dashoffset: 0; stroke: #ff7f0e; stroke-width: 1.5"/>
    </g>
    <g id="text_18">
     <!-- sequential2 -->
     <g transform="translate(343.660975 217.921463) scale(0.1 -0.1)">
      <use xlink:href="#DejaVuSans-73"/>
      <use xlink:href="#DejaVuSans-65" x="52.099609"/>
      <use xlink:href="#DejaVuSans-71" x="113.623047"/>
      <use xlink:href="#DejaVuSans-75" x="177.099609"/>
      <use xlink:href="#DejaVuSans-65" x="240.478516"/>
      <use xlink:href="#DejaVuSans-6e" x="302.001953"/>
      <use xlink:href="#DejaVuSans-74" x="365.380859"/>
      <use xlink:href="#DejaVuSans-69" x="404.589844"/>
      <use xlink:href="#DejaVuSans-61" x="432.373047"/>
      <use xlink:href="#DejaVuSans-6c" x="493.652344"/>
      <use xlink:href="#DejaVuSans-32" x="521.435547"/>
     </g>
    </g>
    <g id="line2d_24">
     <path d="M 315.660975 229.099587 
L 325.660975 229.099587 
L 335.660975 229.099587 
" style="fill: none; stroke-dasharray: 1.5,2.475; stroke-dashoffset: 0; stroke: #2ca02c; stroke-width: 1.5"/>
    </g>
    <g id="text_19">
     <!-- normal_binary -->
     <g transform="translate(343.660975 232.599587) scale(0.1 -0.1)">
      <defs>
       <path id="DejaVuSans-5f" d="M 3263 -1063 
L 3263 -1509 
L -63 -1509 
L -63 -1063 
L 3263 -1063 
z
" transform="scale(0.015625)"/>
      </defs>
      <use xlink:href="#DejaVuSans-6e"/>
      <use xlink:href="#DejaVuSans-6f" x="63.378906"/>
      <use xlink:href="#DejaVuSans-72" x="124.560547"/>
      <use xlink:href="#DejaVuSans-6d" x="163.923828"/>
      <use xlink:href="#DejaVuSans-61" x="261.335938"/>
      <use xlink:href="#DejaVuSans-6c" x="322.615234"/>
      <use xlink:href="#DejaVuSans-5f" x="350.398438"/>
      <use xlink:href="#DejaVuSans-62" x="400.398438"/>
      <use xlink:href="#DejaVuSans-69" x="463.875"/>
      <use xlink:href="#DejaVuSans-6e" x="491.658203"/>
      <use xlink:href="#DejaVuSans-61" x="555.037109"/>
      <use xlink:href="#DejaVuSans-72" x="616.316406"/>
      <use xlink:href="#DejaVuSans-79" x="657.429688"/>
     </g>
    </g>
    <g id="line2d_25">
     <path d="M 315.660975 244.055837 
L 325.660975 244.055837 
L 335.660975 244.055837 
" style="fill: none; stroke-dasharray: 1.5,2.475; stroke-dashoffset: 0; stroke: #d62728; stroke-width: 1.5"/>
    </g>
    <g id="text_20">
     <!-- std::lower_bound -->
     <g transform="translate(343.660975 247.555837) scale(0.1 -0.1)">
      <defs>
       <path id="DejaVuSans-3a" d="M 750 794 
L 1409 794 
L 1409 0 
L 750 0 
L 750 794 
z
M 750 3309 
L 1409 3309 
L 1409 2516 
L 750 2516 
L 750 3309 
z
" transform="scale(0.015625)"/>
       <path id="DejaVuSans-77" d="M 269 3500 
L 844 3500 
L 1563 769 
L 2278 3500 
L 2956 3500 
L 3675 769 
L 4391 3500 
L 4966 3500 
L 4050 0 
L 3372 0 
L 2619 2869 
L 1863 0 
L 1184 0 
L 269 3500 
z
" transform="scale(0.015625)"/>
      </defs>
      <use xlink:href="#DejaVuSans-73"/>
      <use xlink:href="#DejaVuSans-74" x="52.099609"/>
      <use xlink:href="#DejaVuSans-64" x="91.308594"/>
      <use xlink:href="#DejaVuSans-3a" x="154.785156"/>
      <use xlink:href="#DejaVuSans-3a" x="188.476562"/>
      <use xlink:href="#DejaVuSans-6c" x="222.167969"/>
      <use xlink:href="#DejaVuSans-6f" x="249.951172"/>
      <use xlink:href="#DejaVuSans-77" x="311.132812"/>
      <use xlink:href="#DejaVuSans-65" x="392.919922"/>
      <use xlink:href="#DejaVuSans-72" x="454.443359"/>
      <use xlink:href="#DejaVuSans-5f" x="495.556641"/>
      <use xlink:href="#DejaVuSans-62" x="545.556641"/>
      <use xlink:href="#DejaVuSans-6f" x="609.033203"/>
      <use xlink:href="#DejaVuSans-75" x="670.214844"/>
      <use xlink:href="#DejaVuSans-6e" x="733.59375"/>
      <use xlink:href="#DejaVuSans-64" x="796.972656"/>
     </g>
    </g>
    <g id="line2d_26">
     <path d="M 315.660975 259.012088 
L 325.660975 259.012088 
L 335.660975 259.012088 
" style="fill: none; stroke-dasharray: 1.5,2.475; stroke-dashoffset: 0; stroke: #9467bd; stroke-width: 1.5"/>
    </g>
    <g id="text_21">
     <!-- simd_binary -->
     <g transform="translate(343.660975 262.512088) scale(0.1 -0.1)">
      <use xlink:href="#DejaVuSans-73"/>
      <use xlink:href="#DejaVuSans-69" x="52.099609"/>
      <use xlink:href="#DejaVuSans-6d" x="79.882812"/>
      <use xlink:href="#DejaVuSans-64" x="177.294922"/>
      <use xlink:href="#DejaVuSans-5f" x="240.771484"/>
      <use xlink:href="#DejaVuSans-62" x="290.771484"/>
      <use xlink:href="#DejaVuSans-69" x="354.248047"/>
      <use xlink:href="#DejaVuSans-6e" x="382.03125"/>
      <use xlink:href="#DejaVuSans-61" x="445.410156"/>
      <use xlink:href="#DejaVuSans-72" x="506.689453"/>
      <use xlink:href="#DejaVuSans-79" x="547.802734"/>
     </g>
    </g>
    <g id="line2d_27">
     <path d="M 315.660975 273.968337 
L 325.660975 273.968337 
L 335.660975 273.968337 
" style="fill: none; stroke-dasharray: 9.6,2.4,1.5,2.4; stroke-dashoffset: 0; stroke: #8c564b; stroke-width: 1.5"/>
    </g>
    <g id="text_22">
     <!-- hybrid_binary -->
     <g transform="translate(343.660975 277.468337) scale(0.1 -0.1)">
      <use xlink:href="#DejaVuSans-68"/>
      <use xlink:href="#DejaVuSans-79" x="63.378906"/>
      <use xlink:href="#DejaVuSans-62" x="122.558594"/>
      <use xlink:href="#DejaVuSans-72" x="186.035156"/>
      <use xlink:href="#DejaVuSans-69" x="227.148438"/>
      <use xlink:href="#DejaVuSans-64" x="254.931641"/>
      <use xlink:href="#DejaVuSans-5f" x="318.408203"/>
      <use xlink:href="#DejaVuSans-62" x="368.408203"/>
      <use xlink:href="#DejaVuSans-69" x="431.884766"/>
      <use xlink:href="#DejaVuSans-6e" x="459.667969"/>
      <use xlink:href="#DejaVuSans-61" x="523.046875"/>
      <use xlink:href="#DejaVuSans-72" x="584.326172"/>
      <use xlink:href="#DejaVuSans-79" x="625.439453"/>
     </g>
    </g>
    <g id="line2d_28">
     <path d="M 315.660975 288.924587 
L 325.660975 288.924587 
L 335.660975 288.924587 
" style="fill: none; stroke-dasharray: 9.6,2.4,1.5,2.4; stroke-dashoffset: 0; stroke: #e377c2; stroke-width: 1.5"/>
    </g>
    <g id="text_23">
     <!-- hybrid_simd_binary -->
     <g transform="translate(343.660975 292.424587) scale(0.1 -0.1)">
      <use xlink:href="#DejaVuSans-68"/>
      <use xlink:href="#DejaVuSans-79" x="63.378906"/>
      <use xlink:href="#DejaVuSans-62" x="122.558594"/>
      <use xlink:href="#DejaVuSans-72" x="186.035156"/>
      <use xlink:href="#DejaVuSans-69" x="227.148438"/>
      <use xlink:href="#DejaVuSans-64" x="254.931641"/>
      <use xlink:href="#DejaVuSans-5f" x="318.408203"/>
      <use xlink:href="#DejaVuSans-73" x="368.408203"/>
      <use xlink:href="#DejaVuSans-69" x="420.507812"/>
      <use xlink:href="#DejaVuSans-6d" x="448.291016"/>
      <use xlink:href="#DejaVuSans-64" x="545.703125"/>
      <use xlink:href="#DejaVuSans-5f" x="609.179688"/>
      <use xlink:href="#DejaVuSans-62" x="659.179688"/>
      <use xlink:href="#DejaVuSans-69" x="722.65625"/>
      <use xlink:href="#DejaVuSans-6e" x="750.439453"/>
      <use xlink:href="#DejaVuSans-61" x="813.818359"/>
      <use xlink:href="#DejaVuSans-72" x="875.097656"/>
      <use xlink:href="#DejaVuSans-79" x="916.210938"/>
     </g>
    </g>
   </g>
  </g>
 </g>
 <defs>
  <clipPath id="p4aa0bdcea2">
   <rect x="54.3744" y="10.7136" width="395.8272" height="293.0688"/>
  </clipPath>
 </defs>
</svg>
