<?xml version="1.0" encoding="utf-8" standalone="no"?>
<!DOCTYPE svg PUBLIC "-//W3C//DTD SVG 1.1//EN"
  "http://www.w3.org/Graphics/SVG/1.1/DTD/svg11.dtd">
<svg xmlns:xlink="http://www.w3.org/1999/xlink" width="460.8pt" height="345.6pt" viewBox="0 0 460.8 345.6" xmlns="http://www.w3.org/2000/svg" version="1.1">
 <metadata>
  <rdf:RDF xmlns:dc="http://purl.org/dc/elements/1.1/" xmlns:cc="http://creativecommons.org/ns#" xmlns:rdf="http://www.w3.org/1999/02/22-rdf-syntax-ns#">
   <cc:Work>
    <dc:type rdf:resource="http://purl.org/dc/dcmitype/StillImage"/>
    <dc:date>2023-11-18T16:31:46.212415</dc:date>
    <dc:format>image/svg+xml</dc:format>
    <dc:creator>
     <cc:Agent>
      <dc:title>Matplotlib v3.7.3, https://matplotlib.org/</dc:title>
     </cc:Agent>
    </dc:creator>
   </cc:Work>
  </rdf:RDF>
 </metadata>
 <defs>
  <style type="text/css">*{stroke-linejoin: round; stroke-linecap: butt}</style>
 </defs>
 <g id="figure_1">
  <g id="patch_1">
   <path d="M 0 345.6 
L 460.8 345.6 
L 460.8 0 
L 0 0 
z
" style="fill: #ffffff"/>
  </g>
  <g id="axes_1">
   <g id="patch_2">
    <path d="M 54.2 303.64 
L 450 303.64 
L 450 10.8 
L 54.2 10.8 
z
" style="fill: #ffffff"/>
   </g>
   <g id="matplotlib.axis_1">
    <g id="xtick_1">
     <g id="line2d_1">
      <defs>
       <path id="mcc11c26d7e" d="M 0 0 
L 0 3.5 
" style="stroke: #000000; stroke-width: 0.8"/>
      </defs>
      <g>
       <use xlink:href="#mcc11c26d7e" x="66.479509" y="303.64" style="stroke: #000000; stroke-width: 0.8"/>
      </g>
     </g>
     <g id="text_1">
      <!-- 0 -->
      <g transform="translate(63.298259 318.238437) scale(0.1 -0.1)">
       <defs>
        <path id="DejaVuSans-30" d="M 2034 4250 
Q 1547 4250 1301 3770 
Q 1056 3291 1056 2328 
Q 1056 1369 1301 889 
Q 1547 409 2034 409 
Q 2525 409 2770 889 
Q 3016 1369 3016 2328 
Q 3016 3291 2770 3770 
Q 2525 4250 2034 4250 
z
M 2034 4750 
Q 2819 4750 3233 4129 
Q 3647 3509 3647 2328 
Q 3647 1150 3233 529 
Q 2819 -91 2034 -91 
Q 1250 -91 836 529 
Q 422 1150 422 2328 
Q 422 3509 836 4129 
Q 1250 4750 2034 4750 
z
" transform="scale(0.015625)"/>
       </defs>
       <use xlink:href="#DejaVuSans-30"/>
      </g>
     </g>
    </g>
    <g id="xtick_2">
     <g id="line2d_2">
      <g>
       <use xlink:href="#mcc11c26d7e" x="137.872006" y="303.64" style="stroke: #000000; stroke-width: 0.8"/>
      </g>
     </g>
     <g id="text_2">
      <!-- 100 -->
      <g transform="translate(128.328256 318.238437) scale(0.1 -0.1)">
       <defs>
        <path id="DejaVuSans-31" d="M 794 531 
L 1825 531 
L 1825 4091 
L 703 3866 
L 703 4441 
L 1819 4666 
L 2450 4666 
L 2450 531 
L 3481 531 
L 3481 0 
L 794 0 
L 794 531 
z
" transform="scale(0.015625)"/>
       </defs>
       <use xlink:href="#DejaVuSans-31"/>
       <use xlink:href="#DejaVuSans-30" x="63.623047"/>
       <use xlink:href="#DejaVuSans-30" x="127.246094"/>
      </g>
     </g>
    </g>
    <g id="xtick_3">
     <g id="line2d_3">
      <g>
       <use xlink:href="#mcc11c26d7e" x="209.264502" y="303.64" style="stroke: #000000; stroke-width: 0.8"/>
      </g>
     </g>
     <g id="text_3">
      <!-- 200 -->
      <g transform="translate(199.720752 318.238437) scale(0.1 -0.1)">
       <defs>
        <path id="DejaVuSans-32" d="M 1228 531 
L 3431 531 
L 3431 0 
L 469 0 
L 469 531 
Q 828 903 1448 1529 
Q 2069 2156 2228 2338 
Q 2531 2678 2651 2914 
Q 2772 3150 2772 3378 
Q 2772 3750 2511 3984 
Q 2250 4219 1831 4219 
Q 1534 4219 1204 4116 
Q 875 4013 500 3803 
L 500 4441 
Q 881 4594 1212 4672 
Q 1544 4750 1819 4750 
Q 2544 4750 2975 4387 
Q 3406 4025 3406 3419 
Q 3406 3131 3298 2873 
Q 3191 2616 2906 2266 
Q 2828 2175 2409 1742 
Q 1991 1309 1228 531 
z
" transform="scale(0.015625)"/>
       </defs>
       <use xlink:href="#DejaVuSans-32"/>
       <use xlink:href="#DejaVuSans-30" x="63.623047"/>
       <use xlink:href="#DejaVuSans-30" x="127.246094"/>
      </g>
     </g>
    </g>
    <g id="xtick_4">
     <g id="line2d_4">
      <g>
       <use xlink:href="#mcc11c26d7e" x="280.656999" y="303.64" style="stroke: #000000; stroke-width: 0.8"/>
      </g>
     </g>
     <g id="text_4">
      <!-- 300 -->
      <g transform="translate(271.113249 318.238437) scale(0.1 -0.1)">
       <defs>
        <path id="DejaVuSans-33" d="M 2597 2516 
Q 3050 2419 3304 2112 
Q 3559 1806 3559 1356 
Q 3559 666 3084 287 
Q 2609 -91 1734 -91 
Q 1441 -91 1130 -33 
Q 819 25 488 141 
L 488 750 
Q 750 597 1062 519 
Q 1375 441 1716 441 
Q 2309 441 2620 675 
Q 2931 909 2931 1356 
Q 2931 1769 2642 2001 
Q 2353 2234 1838 2234 
L 1294 2234 
L 1294 2753 
L 1863 2753 
Q 2328 2753 2575 2939 
Q 2822 3125 2822 3475 
Q 2822 3834 2567 4026 
Q 2313 4219 1838 4219 
Q 1578 4219 1281 4162 
Q 984 4106 628 3988 
L 628 4550 
Q 988 4650 1302 4700 
Q 1616 4750 1894 4750 
Q 2613 4750 3031 4423 
Q 3450 4097 3450 3541 
Q 3450 3153 3228 2886 
Q 3006 2619 2597 2516 
z
" transform="scale(0.015625)"/>
       </defs>
       <use xlink:href="#DejaVuSans-33"/>
       <use xlink:href="#DejaVuSans-30" x="63.623047"/>
       <use xlink:href="#DejaVuSans-30" x="127.246094"/>
      </g>
     </g>
    </g>
    <g id="xtick_5">
     <g id="line2d_5">
      <g>
       <use xlink:href="#mcc11c26d7e" x="352.049495" y="303.64" style="stroke: #000000; stroke-width: 0.8"/>
      </g>
     </g>
     <g id="text_5">
      <!-- 400 -->
      <g transform="translate(342.505745 318.238437) scale(0.1 -0.1)">
       <defs>
        <path id="DejaVuSans-34" d="M 2419 4116 
L 825 1625 
L 2419 1625 
L 2419 4116 
z
M 2253 4666 
L 3047 4666 
L 3047 1625 
L 3713 1625 
L 3713 1100 
L 3047 1100 
L 3047 0 
L 2419 0 
L 2419 1100 
L 313 1100 
L 313 1709 
L 2253 4666 
z
" transform="scale(0.015625)"/>
       </defs>
       <use xlink:href="#DejaVuSans-34"/>
       <use xlink:href="#DejaVuSans-30" x="63.623047"/>
       <use xlink:href="#DejaVuSans-30" x="127.246094"/>
      </g>
     </g>
    </g>
    <g id="xtick_6">
     <g id="line2d_6">
      <g>
       <use xlink:href="#mcc11c26d7e" x="423.441991" y="303.64" style="stroke: #000000; stroke-width: 0.8"/>
      </g>
     </g>
     <g id="text_6">
      <!-- 500 -->
      <g transform="translate(413.898241 318.238437) scale(0.1 -0.1)">
       <defs>
        <path id="DejaVuSans-35" d="M 691 4666 
L 3169 4666 
L 3169 4134 
L 1269 4134 
L 1269 2991 
Q 1406 3038 1543 3061 
Q 1681 3084 1819 3084 
Q 2600 3084 3056 2656 
Q 3513 2228 3513 1497 
Q 3513 744 3044 326 
Q 2575 -91 1722 -91 
Q 1428 -91 1123 -41 
Q 819 9 494 109 
L 494 744 
Q 775 591 1075 516 
Q 1375 441 1709 441 
Q 2250 441 2565 725 
Q 2881 1009 2881 1497 
Q 2881 1984 2565 2268 
Q 2250 2553 1709 2553 
Q 1456 2553 1204 2497 
Q 953 2441 691 2322 
L 691 4666 
z
" transform="scale(0.015625)"/>
       </defs>
       <use xlink:href="#DejaVuSans-35"/>
       <use xlink:href="#DejaVuSans-30" x="63.623047"/>
       <use xlink:href="#DejaVuSans-30" x="127.246094"/>
      </g>
     </g>
    </g>
    <g id="text_7">
     <!-- Number of keys per node -->
     <g transform="translate(188.698438 331.916562) scale(0.1 -0.1)">
      <defs>
       <path id="DejaVuSans-4e" d="M 628 4666 
L 1478 4666 
L 3547 763 
L 3547 4666 
L 4159 4666 
L 4159 0 
L 3309 0 
L 1241 3903 
L 1241 0 
L 628 0 
L 628 4666 
z
" transform="scale(0.015625)"/>
       <path id="DejaVuSans-75" d="M 544 1381 
L 544 3500 
L 1119 3500 
L 1119 1403 
Q 1119 906 1312 657 
Q 1506 409 1894 409 
Q 2359 409 2629 706 
Q 2900 1003 2900 1516 
L 2900 3500 
L 3475 3500 
L 3475 0 
L 2900 0 
L 2900 538 
Q 2691 219 2414 64 
Q 2138 -91 1772 -91 
Q 1169 -91 856 284 
Q 544 659 544 1381 
z
M 1991 3584 
L 1991 3584 
z
" transform="scale(0.015625)"/>
       <path id="DejaVuSans-6d" d="M 3328 2828 
Q 3544 3216 3844 3400 
Q 4144 3584 4550 3584 
Q 5097 3584 5394 3201 
Q 5691 2819 5691 2113 
L 5691 0 
L 5113 0 
L 5113 2094 
Q 5113 2597 4934 2840 
Q 4756 3084 4391 3084 
Q 3944 3084 3684 2787 
Q 3425 2491 3425 1978 
L 3425 0 
L 2847 0 
L 2847 2094 
Q 2847 2600 2669 2842 
Q 2491 3084 2119 3084 
Q 1678 3084 1418 2786 
Q 1159 2488 1159 1978 
L 1159 0 
L 581 0 
L 581 3500 
L 1159 3500 
L 1159 2956 
Q 1356 3278 1631 3431 
Q 1906 3584 2284 3584 
Q 2666 3584 2933 3390 
Q 3200 3197 3328 2828 
z
" transform="scale(0.015625)"/>
       <path id="DejaVuSans-62" d="M 3116 1747 
Q 3116 2381 2855 2742 
Q 2594 3103 2138 3103 
Q 1681 3103 1420 2742 
Q 1159 2381 1159 1747 
Q 1159 1113 1420 752 
Q 1681 391 2138 391 
Q 2594 391 2855 752 
Q 3116 1113 3116 1747 
z
M 1159 2969 
Q 1341 3281 1617 3432 
Q 1894 3584 2278 3584 
Q 2916 3584 3314 3078 
Q 3713 2572 3713 1747 
Q 3713 922 3314 415 
Q 2916 -91 2278 -91 
Q 1894 -91 1617 61 
Q 1341 213 1159 525 
L 1159 0 
L 581 0 
L 581 4863 
L 1159 4863 
L 1159 2969 
z
" transform="scale(0.015625)"/>
       <path id="DejaVuSans-65" d="M 3597 1894 
L 3597 1613 
L 953 1613 
Q 991 1019 1311 708 
Q 1631 397 2203 397 
Q 2534 397 2845 478 
Q 3156 559 3463 722 
L 3463 178 
Q 3153 47 2828 -22 
Q 2503 -91 2169 -91 
Q 1331 -91 842 396 
Q 353 884 353 1716 
Q 353 2575 817 3079 
Q 1281 3584 2069 3584 
Q 2775 3584 3186 3129 
Q 3597 2675 3597 1894 
z
M 3022 2063 
Q 3016 2534 2758 2815 
Q 2500 3097 2075 3097 
Q 1594 3097 1305 2825 
Q 1016 2553 972 2059 
L 3022 2063 
z
" transform="scale(0.015625)"/>
       <path id="DejaVuSans-72" d="M 2631 2963 
Q 2534 3019 2420 3045 
Q 2306 3072 2169 3072 
Q 1681 3072 1420 2755 
Q 1159 2438 1159 1844 
L 1159 0 
L 581 0 
L 581 3500 
L 1159 3500 
L 1159 2956 
Q 1341 3275 1631 3429 
Q 1922 3584 2338 3584 
Q 2397 3584 2469 3576 
Q 2541 3569 2628 3553 
L 2631 2963 
z
" transform="scale(0.015625)"/>
       <path id="DejaVuSans-20" transform="scale(0.015625)"/>
       <path id="DejaVuSans-6f" d="M 1959 3097 
Q 1497 3097 1228 2736 
Q 959 2375 959 1747 
Q 959 1119 1226 758 
Q 1494 397 1959 397 
Q 2419 397 2687 759 
Q 2956 1122 2956 1747 
Q 2956 2369 2687 2733 
Q 2419 3097 1959 3097 
z
M 1959 3584 
Q 2709 3584 3137 3096 
Q 3566 2609 3566 1747 
Q 3566 888 3137 398 
Q 2709 -91 1959 -91 
Q 1206 -91 779 398 
Q 353 888 353 1747 
Q 353 2609 779 3096 
Q 1206 3584 1959 3584 
z
" transform="scale(0.015625)"/>
       <path id="DejaVuSans-66" d="M 2375 4863 
L 2375 4384 
L 1825 4384 
Q 1516 4384 1395 4259 
Q 1275 4134 1275 3809 
L 1275 3500 
L 2222 3500 
L 2222 3053 
L 1275 3053 
L 1275 0 
L 697 0 
L 697 3053 
L 147 3053 
L 147 3500 
L 697 3500 
L 697 3744 
Q 697 4328 969 4595 
Q 1241 4863 1831 4863 
L 2375 4863 
z
" transform="scale(0.015625)"/>
       <path id="DejaVuSans-6b" d="M 581 4863 
L 1159 4863 
L 1159 1991 
L 2875 3500 
L 3609 3500 
L 1753 1863 
L 3688 0 
L 2938 0 
L 1159 1709 
L 1159 0 
L 581 0 
L 581 4863 
z
" transform="scale(0.015625)"/>
       <path id="DejaVuSans-79" d="M 2059 -325 
Q 1816 -950 1584 -1140 
Q 1353 -1331 966 -1331 
L 506 -1331 
L 506 -850 
L 844 -850 
Q 1081 -850 1212 -737 
Q 1344 -625 1503 -206 
L 1606 56 
L 191 3500 
L 800 3500 
L 1894 763 
L 2988 3500 
L 3597 3500 
L 2059 -325 
z
" transform="scale(0.015625)"/>
       <path id="DejaVuSans-73" d="M 2834 3397 
L 2834 2853 
Q 2591 2978 2328 3040 
Q 2066 3103 1784 3103 
Q 1356 3103 1142 2972 
Q 928 2841 928 2578 
Q 928 2378 1081 2264 
Q 1234 2150 1697 2047 
L 1894 2003 
Q 2506 1872 2764 1633 
Q 3022 1394 3022 966 
Q 3022 478 2636 193 
Q 2250 -91 1575 -91 
Q 1294 -91 989 -36 
Q 684 19 347 128 
L 347 722 
Q 666 556 975 473 
Q 1284 391 1588 391 
Q 1994 391 2212 530 
Q 2431 669 2431 922 
Q 2431 1156 2273 1281 
Q 2116 1406 1581 1522 
L 1381 1569 
Q 847 1681 609 1914 
Q 372 2147 372 2553 
Q 372 3047 722 3315 
Q 1072 3584 1716 3584 
Q 2034 3584 2315 3537 
Q 2597 3491 2834 3397 
z
" transform="scale(0.015625)"/>
       <path id="DejaVuSans-70" d="M 1159 525 
L 1159 -1331 
L 581 -1331 
L 581 3500 
L 1159 3500 
L 1159 2969 
Q 1341 3281 1617 3432 
Q 1894 3584 2278 3584 
Q 2916 3584 3314 3078 
Q 3713 2572 3713 1747 
Q 3713 922 3314 415 
Q 2916 -91 2278 -91 
Q 1894 -91 1617 61 
Q 1341 213 1159 525 
z
M 3116 1747 
Q 3116 2381 2855 2742 
Q 2594 3103 2138 3103 
Q 1681 3103 1420 2742 
Q 1159 2381 1159 1747 
Q 1159 1113 1420 752 
Q 1681 391 2138 391 
Q 2594 391 2855 752 
Q 3116 1113 3116 1747 
z
" transform="scale(0.015625)"/>
       <path id="DejaVuSans-6e" d="M 3513 2113 
L 3513 0 
L 2938 0 
L 2938 2094 
Q 2938 2591 2744 2837 
Q 2550 3084 2163 3084 
Q 1697 3084 1428 2787 
Q 1159 2491 1159 1978 
L 1159 0 
L 581 0 
L 581 3500 
L 1159 3500 
L 1159 2956 
Q 1366 3272 1645 3428 
Q 1925 3584 2291 3584 
Q 2894 3584 3203 3211 
Q 3513 2838 3513 2113 
z
" transform="scale(0.015625)"/>
       <path id="DejaVuSans-64" d="M 2906 2969 
L 2906 4863 
L 3481 4863 
L 3481 0 
L 2906 0 
L 2906 525 
Q 2725 213 2448 61 
Q 2172 -91 1784 -91 
Q 1150 -91 751 415 
Q 353 922 353 1747 
Q 353 2572 751 3078 
Q 1150 3584 1784 3584 
Q 2172 3584 2448 3432 
Q 2725 3281 2906 2969 
z
M 947 1747 
Q 947 1113 1208 752 
Q 1469 391 1925 391 
Q 2381 391 2643 752 
Q 2906 1113 2906 1747 
Q 2906 2381 2643 2742 
Q 2381 3103 1925 3103 
Q 1469 3103 1208 2742 
Q 947 2381 947 1747 
z
" transform="scale(0.015625)"/>
      </defs>
      <use xlink:href="#DejaVuSans-4e"/>
      <use xlink:href="#DejaVuSans-75" x="74.804688"/>
      <use xlink:href="#DejaVuSans-6d" x="138.183594"/>
      <use xlink:href="#DejaVuSans-62" x="235.595703"/>
      <use xlink:href="#DejaVuSans-65" x="299.072266"/>
      <use xlink:href="#DejaVuSans-72" x="360.595703"/>
      <use xlink:href="#DejaVuSans-20" x="401.708984"/>
      <use xlink:href="#DejaVuSans-6f" x="433.496094"/>
      <use xlink:href="#DejaVuSans-66" x="494.677734"/>
      <use xlink:href="#DejaVuSans-20" x="529.882812"/>
      <use xlink:href="#DejaVuSans-6b" x="561.669922"/>
      <use xlink:href="#DejaVuSans-65" x="615.955078"/>
      <use xlink:href="#DejaVuSans-79" x="677.478516"/>
      <use xlink:href="#DejaVuSans-73" x="736.658203"/>
      <use xlink:href="#DejaVuSans-20" x="788.757812"/>
      <use xlink:href="#DejaVuSans-70" x="820.544922"/>
      <use xlink:href="#DejaVuSans-65" x="884.021484"/>
      <use xlink:href="#DejaVuSans-72" x="945.544922"/>
      <use xlink:href="#DejaVuSans-20" x="986.658203"/>
      <use xlink:href="#DejaVuSans-6e" x="1018.445312"/>
      <use xlink:href="#DejaVuSans-6f" x="1081.824219"/>
      <use xlink:href="#DejaVuSans-64" x="1143.005859"/>
      <use xlink:href="#DejaVuSans-65" x="1206.482422"/>
     </g>
    </g>
   </g>
   <g id="matplotlib.axis_2">
    <g id="ytick_1">
     <g id="line2d_7">
      <defs>
       <path id="m96ef1f1270" d="M 0 0 
L -3.5 0 
" style="stroke: #000000; stroke-width: 0.8"/>
      </defs>
      <g>
       <use xlink:href="#m96ef1f1270" x="54.2" y="299.269101" style="stroke: #000000; stroke-width: 0.8"/>
      </g>
     </g>
     <g id="text_8">
      <!-- 0.00 -->
      <g transform="translate(24.934375 303.06832) scale(0.1 -0.1)">
       <defs>
        <path id="DejaVuSans-2e" d="M 684 794 
L 1344 794 
L 1344 0 
L 684 0 
L 684 794 
z
" transform="scale(0.015625)"/>
       </defs>
       <use xlink:href="#DejaVuSans-30"/>
       <use xlink:href="#DejaVuSans-2e" x="63.623047"/>
       <use xlink:href="#DejaVuSans-30" x="95.410156"/>
       <use xlink:href="#DejaVuSans-30" x="159.033203"/>
      </g>
     </g>
    </g>
    <g id="ytick_2">
     <g id="line2d_8">
      <g>
       <use xlink:href="#m96ef1f1270" x="54.2" y="247.064053" style="stroke: #000000; stroke-width: 0.8"/>
      </g>
     </g>
     <g id="text_9">
      <!-- 0.05 -->
      <g transform="translate(24.934375 250.863272) scale(0.1 -0.1)">
       <use xlink:href="#DejaVuSans-30"/>
       <use xlink:href="#DejaVuSans-2e" x="63.623047"/>
       <use xlink:href="#DejaVuSans-30" x="95.410156"/>
       <use xlink:href="#DejaVuSans-35" x="159.033203"/>
      </g>
     </g>
    </g>
    <g id="ytick_3">
     <g id="line2d_9">
      <g>
       <use xlink:href="#m96ef1f1270" x="54.2" y="194.859005" style="stroke: #000000; stroke-width: 0.8"/>
      </g>
     </g>
     <g id="text_10">
      <!-- 0.10 -->
      <g transform="translate(24.934375 198.658223) scale(0.1 -0.1)">
       <use xlink:href="#DejaVuSans-30"/>
       <use xlink:href="#DejaVuSans-2e" x="63.623047"/>
       <use xlink:href="#DejaVuSans-31" x="95.410156"/>
       <use xlink:href="#DejaVuSans-30" x="159.033203"/>
      </g>
     </g>
    </g>
    <g id="ytick_4">
     <g id="line2d_10">
      <g>
       <use xlink:href="#m96ef1f1270" x="54.2" y="142.653956" style="stroke: #000000; stroke-width: 0.8"/>
      </g>
     </g>
     <g id="text_11">
      <!-- 0.15 -->
      <g transform="translate(24.934375 146.453175) scale(0.1 -0.1)">
       <use xlink:href="#DejaVuSans-30"/>
       <use xlink:href="#DejaVuSans-2e" x="63.623047"/>
       <use xlink:href="#DejaVuSans-31" x="95.410156"/>
       <use xlink:href="#DejaVuSans-35" x="159.033203"/>
      </g>
     </g>
    </g>
    <g id="ytick_5">
     <g id="line2d_11">
      <g>
       <use xlink:href="#m96ef1f1270" x="54.2" y="90.448908" style="stroke: #000000; stroke-width: 0.8"/>
      </g>
     </g>
     <g id="text_12">
      <!-- 0.20 -->
      <g transform="translate(24.934375 94.248127) scale(0.1 -0.1)">
       <use xlink:href="#DejaVuSans-30"/>
       <use xlink:href="#DejaVuSans-2e" x="63.623047"/>
       <use xlink:href="#DejaVuSans-32" x="95.410156"/>
       <use xlink:href="#DejaVuSans-30" x="159.033203"/>
      </g>
     </g>
    </g>
    <g id="ytick_6">
     <g id="line2d_12">
      <g>
       <use xlink:href="#m96ef1f1270" x="54.2" y="38.24386" style="stroke: #000000; stroke-width: 0.8"/>
      </g>
     </g>
     <g id="text_13">
      <!-- 0.25 -->
      <g transform="translate(24.934375 42.043079) scale(0.1 -0.1)">
       <use xlink:href="#DejaVuSans-30"/>
       <use xlink:href="#DejaVuSans-2e" x="63.623047"/>
       <use xlink:href="#DejaVuSans-32" x="95.410156"/>
       <use xlink:href="#DejaVuSans-35" x="159.033203"/>
      </g>
     </g>
    </g>
    <g id="text_14">
     <!-- 10K random search (milliseconds) -->
     <g transform="translate(18.854688 242.392656) rotate(-90) scale(0.1 -0.1)">
      <defs>
       <path id="DejaVuSans-4b" d="M 628 4666 
L 1259 4666 
L 1259 2694 
L 3353 4666 
L 4166 4666 
L 1850 2491 
L 4331 0 
L 3500 0 
L 1259 2247 
L 1259 0 
L 628 0 
L 628 4666 
z
" transform="scale(0.015625)"/>
       <path id="DejaVuSans-61" d="M 2194 1759 
Q 1497 1759 1228 1600 
Q 959 1441 959 1056 
Q 959 750 1161 570 
Q 1363 391 1709 391 
Q 2188 391 2477 730 
Q 2766 1069 2766 1631 
L 2766 1759 
L 2194 1759 
z
M 3341 1997 
L 3341 0 
L 2766 0 
L 2766 531 
Q 2569 213 2275 61 
Q 1981 -91 1556 -91 
Q 1019 -91 701 211 
Q 384 513 384 1019 
Q 384 1609 779 1909 
Q 1175 2209 1959 2209 
L 2766 2209 
L 2766 2266 
Q 2766 2663 2505 2880 
Q 2244 3097 1772 3097 
Q 1472 3097 1187 3025 
Q 903 2953 641 2809 
L 641 3341 
Q 956 3463 1253 3523 
Q 1550 3584 1831 3584 
Q 2591 3584 2966 3190 
Q 3341 2797 3341 1997 
z
" transform="scale(0.015625)"/>
       <path id="DejaVuSans-63" d="M 3122 3366 
L 3122 2828 
Q 2878 2963 2633 3030 
Q 2388 3097 2138 3097 
Q 1578 3097 1268 2742 
Q 959 2388 959 1747 
Q 959 1106 1268 751 
Q 1578 397 2138 397 
Q 2388 397 2633 464 
Q 2878 531 3122 666 
L 3122 134 
Q 2881 22 2623 -34 
Q 2366 -91 2075 -91 
Q 1284 -91 818 406 
Q 353 903 353 1747 
Q 353 2603 823 3093 
Q 1294 3584 2113 3584 
Q 2378 3584 2631 3529 
Q 2884 3475 3122 3366 
z
" transform="scale(0.015625)"/>
       <path id="DejaVuSans-68" d="M 3513 2113 
L 3513 0 
L 2938 0 
L 2938 2094 
Q 2938 2591 2744 2837 
Q 2550 3084 2163 3084 
Q 1697 3084 1428 2787 
Q 1159 2491 1159 1978 
L 1159 0 
L 581 0 
L 581 4863 
L 1159 4863 
L 1159 2956 
Q 1366 3272 1645 3428 
Q 1925 3584 2291 3584 
Q 2894 3584 3203 3211 
Q 3513 2838 3513 2113 
z
" transform="scale(0.015625)"/>
       <path id="DejaVuSans-28" d="M 1984 4856 
Q 1566 4138 1362 3434 
Q 1159 2731 1159 2009 
Q 1159 1288 1364 580 
Q 1569 -128 1984 -844 
L 1484 -844 
Q 1016 -109 783 600 
Q 550 1309 550 2009 
Q 550 2706 781 3412 
Q 1013 4119 1484 4856 
L 1984 4856 
z
" transform="scale(0.015625)"/>
       <path id="DejaVuSans-69" d="M 603 3500 
L 1178 3500 
L 1178 0 
L 603 0 
L 603 3500 
z
M 603 4863 
L 1178 4863 
L 1178 4134 
L 603 4134 
L 603 4863 
z
" transform="scale(0.015625)"/>
       <path id="DejaVuSans-6c" d="M 603 4863 
L 1178 4863 
L 1178 0 
L 603 0 
L 603 4863 
z
" transform="scale(0.015625)"/>
       <path id="DejaVuSans-29" d="M 513 4856 
L 1013 4856 
Q 1481 4119 1714 3412 
Q 1947 2706 1947 2009 
Q 1947 1309 1714 600 
Q 1481 -109 1013 -844 
L 513 -844 
Q 928 -128 1133 580 
Q 1338 1288 1338 2009 
Q 1338 2731 1133 3434 
Q 928 4138 513 4856 
z
" transform="scale(0.015625)"/>
      </defs>
      <use xlink:href="#DejaVuSans-31"/>
      <use xlink:href="#DejaVuSans-30" x="63.623047"/>
      <use xlink:href="#DejaVuSans-4b" x="127.246094"/>
      <use xlink:href="#DejaVuSans-20" x="192.822266"/>
      <use xlink:href="#DejaVuSans-72" x="224.609375"/>
      <use xlink:href="#DejaVuSans-61" x="265.722656"/>
      <use xlink:href="#DejaVuSans-6e" x="327.001953"/>
      <use xlink:href="#DejaVuSans-64" x="390.380859"/>
      <use xlink:href="#DejaVuSans-6f" x="453.857422"/>
      <use xlink:href="#DejaVuSans-6d" x="515.039062"/>
      <use xlink:href="#DejaVuSans-20" x="612.451172"/>
      <use xlink:href="#DejaVuSans-73" x="644.238281"/>
      <use xlink:href="#DejaVuSans-65" x="696.337891"/>
      <use xlink:href="#DejaVuSans-61" x="757.861328"/>
      <use xlink:href="#DejaVuSans-72" x="819.140625"/>
      <use xlink:href="#DejaVuSans-63" x="858.003906"/>
      <use xlink:href="#DejaVuSans-68" x="912.984375"/>
      <use xlink:href="#DejaVuSans-20" x="976.363281"/>
      <use xlink:href="#DejaVuSans-28" x="1008.150391"/>
      <use xlink:href="#DejaVuSans-6d" x="1047.164062"/>
      <use xlink:href="#DejaVuSans-69" x="1144.576172"/>
      <use xlink:href="#DejaVuSans-6c" x="1172.359375"/>
      <use xlink:href="#DejaVuSans-6c" x="1200.142578"/>
      <use xlink:href="#DejaVuSans-69" x="1227.925781"/>
      <use xlink:href="#DejaVuSans-73" x="1255.708984"/>
      <use xlink:href="#DejaVuSans-65" x="1307.808594"/>
      <use xlink:href="#DejaVuSans-63" x="1369.332031"/>
      <use xlink:href="#DejaVuSans-6f" x="1424.3125"/>
      <use xlink:href="#DejaVuSans-6e" x="1485.494141"/>
      <use xlink:href="#DejaVuSans-64" x="1548.873047"/>
      <use xlink:href="#DejaVuSans-73" x="1612.349609"/>
      <use xlink:href="#DejaVuSans-29" x="1664.449219"/>
     </g>
    </g>
   </g>
   <g id="line2d_13">
    <path d="M 72.190909 257.879268 
L 77.902309 254.248094 
L 83.613709 242.784701 
L 89.325108 235.594812 
L 95.036508 225.094289 
L 100.747908 216.387531 
L 106.459307 202.576372 
L 112.170707 201.657772 
L 117.882107 187.510622 
L 123.593506 183.238161 
L 129.304906 173.700298 
L 135.016306 163.213348 
L 140.727706 157.307913 
L 146.439105 144.313033 
L 152.150505 135.227266 
L 157.861905 130.778352 
L 163.573304 82.243319 
L 169.284704 83.817823 
L 174.996104 97.876642 
L 180.707504 115.538654 
L 186.418903 128.080395 
L 192.130303 103.2736 
L 197.841703 137.983693 
L 203.553102 130.457813 
L 209.264502 132.747526 
L 214.975902 130.137274 
L 220.687302 110.025801 
L 226.398701 126.520508 
L 232.110101 79.44304 
L 237.821501 118.601002 
L 243.5329 115.786106 
L 249.2443 111.265149 
L 254.9557 101.464173 
L 260.6671 79.165309 
L 266.378499 78.947092 
L 272.089899 89.987415 
L 277.801299 89.199119 
L 283.512698 88.761641 
L 289.224098 85.961362 
L 294.935498 84.57584 
L 300.646898 81.703518 
L 306.358297 81.718136 
L 312.069697 78.553466 
L 317.781097 77.473865 
L 323.492496 52.38934 
L 329.203896 73.59503 
L 334.915296 72.471578 
L 340.626696 69.219203 
L 346.338095 67.673934 
L 352.049495 61.154567 
L 357.760895 65.179576 
L 363.472294 63.896376 
L 369.183694 62.598559 
L 374.895094 60.862219 
L 380.606494 59.024601 
L 386.317893 57.829106 
L 392.029293 55.947636 
L 397.740693 55.627097 
L 403.452092 53.5556 
L 409.163492 52.243165 
L 414.874892 24.110909 
L 420.586291 49.268522 
L 426.297691 46.585182 
L 432.009091 45.680991 
" clip-path="url(#p8a1a36adb2)" style="fill: none; stroke-dasharray: 9.6,2.4,1.5,2.4; stroke-dashoffset: 0; stroke: #1f77b4; stroke-width: 1.5"/>
   </g>
   <g id="line2d_14">
    <path d="M 72.190909 266.557 
L 77.902309 272.886549 
L 83.613709 275.322019 
L 89.325108 272.375984 
L 95.036508 269.386305 
L 100.747908 265.083982 
L 106.459307 269.094583 
L 112.170707 266.600852 
L 117.882107 261.437982 
L 123.593506 260.592051 
L 129.304906 257.237564 
L 135.016306 253.620798 
L 140.727706 248.13718 
L 146.439105 248.895406 
L 152.150505 245.191353 
L 157.861905 243.557753 
L 163.573304 224.087985 
L 169.284704 225.954837 
L 174.996104 224.102602 
L 180.707504 219.581436 
L 186.418903 221.331558 
L 192.130303 215.731209 
L 197.841703 218.823001 
L 203.553102 216.708279 
L 209.264502 213.208244 
L 214.975902 214.345896 
L 220.687302 211.3416 
L 226.398701 211.443713 
L 232.110101 207.768269 
L 237.821501 209.008034 
L 243.5329 207.257912 
L 249.2443 205.420295 
L 254.9557 200.476268 
L 260.6671 183.893856 
L 266.378499 192.513954 
L 272.089899 191.974154 
L 277.801299 189.917275 
L 283.512698 196.26165 
L 289.224098 187.642179 
L 294.935498 193.53404 
L 300.646898 188.152744 
L 306.358297 191.886449 
L 312.069697 186.737987 
L 317.781097 189.509031 
L 323.492496 176.923438 
L 329.203896 184.3021 
L 334.915296 186.300509 
L 340.626696 181.983151 
L 346.338095 184.535978 
L 352.049495 181.283604 
L 357.760895 183.50023 
L 363.472294 179.621395 
L 369.183694 179.343664 
L 374.895094 180.481734 
L 380.606494 176.558003 
L 386.317893 179.577543 
L 392.029293 175.274803 
L 397.740693 174.764237 
L 403.452092 174.998116 
L 409.163492 173.261776 
L 414.874892 150.380303 
L 420.586291 150.190277 
L 426.297691 171.658037 
L 432.009091 170.155576 
" clip-path="url(#p8a1a36adb2)" style="fill: none; stroke-dasharray: 9.6,2.4,1.5,2.4; stroke-dashoffset: 0; stroke: #ff7f0e; stroke-width: 1.5"/>
   </g>
   <g id="line2d_15">
    <path d="M 72.190909 271.18007 
L 77.902309 283.182846 
L 83.613709 279.81395 
L 89.325108 276.094862 
L 95.036508 272.419836 
L 100.747908 268.452879 
L 106.459307 270.042627 
L 112.170707 272.200992 
L 117.882107 269.648792 
L 123.593506 266.688139 
L 129.304906 264.077469 
L 135.016306 261.641999 
L 140.727706 259.119034 
L 146.439105 258.71079 
L 152.150505 255.079198 
L 157.861905 252.804102 
L 163.573304 259.177503 
L 169.284704 258.725199 
L 174.996104 258.914808 
L 180.707504 256.304346 
L 186.418903 255.604381 
L 192.130303 252.08952 
L 197.841703 253.431189 
L 203.553102 252.352007 
L 209.264502 251.549719 
L 214.975902 240.349231 
L 220.687302 249.34771 
L 226.398701 248.44331 
L 232.110101 247.641232 
L 237.821501 245.614214 
L 243.5329 236.907456 
L 249.2443 231.934194 
L 254.9557 237.913761 
L 260.6671 245.001745 
L 266.378499 244.068318 
L 272.089899 245.570362 
L 277.801299 242.653561 
L 283.512698 244.680788 
L 289.224098 243.091249 
L 294.935498 240.217883 
L 300.646898 241.618231 
L 306.358297 245.468249 
L 312.069697 244.680788 
L 317.781097 241.195161 
L 323.492496 243.120275 
L 329.203896 241.99724 
L 334.915296 231.846908 
L 340.626696 236.076143 
L 346.338095 225.502533 
L 352.049495 237.097065 
L 357.760895 238.846978 
L 363.472294 238.103369 
L 369.183694 231.729968 
L 374.895094 233.232221 
L 380.606494 233.334334 
L 386.317893 234.048917 
L 392.029293 235.186569 
L 397.740693 235.098865 
L 403.452092 228.754907 
L 409.163492 229.513342 
L 414.874892 230.023699 
L 420.586291 230.417533 
L 426.297691 232.619751 
L 432.009091 230.73849 
" clip-path="url(#p8a1a36adb2)" style="fill: none; stroke-dasharray: 9.6,2.4,1.5,2.4; stroke-dashoffset: 0; stroke: #2ca02c; stroke-width: 1.5"/>
   </g>
   <g id="line2d_16">
    <path d="M 72.190909 255.720903 
L 77.902309 278.749176 
L 83.613709 280.309689 
L 89.325108 279.886828 
L 95.036508 276.867706 
L 100.747908 273.732271 
L 106.459307 270.698949 
L 112.170707 279.405498 
L 117.882107 278.238819 
L 123.593506 277.553472 
L 129.304906 276.036602 
L 135.016306 274.417827 
L 140.727706 272.667705 
L 146.439105 271.019696 
L 152.150505 267.009096 
L 157.861905 261.787965 
L 163.573304 265.594339 
L 169.284704 264.734 
L 174.996104 263.960947 
L 180.707504 262.867147 
L 186.418903 264.150556 
L 192.130303 264.369191 
L 197.841703 265.288 
L 203.553102 264.631887 
L 209.264502 263.538087 
L 214.975902 262.735799 
L 220.687302 258.53559 
L 226.398701 260.023434 
L 232.110101 254.204242 
L 237.821501 258.812694 
L 243.5329 255.00632 
L 249.2443 251.462224 
L 254.9557 255.458416 
L 260.6671 260.16919 
L 266.378499 257.339677 
L 272.089899 257.266799 
L 277.801299 257.223155 
L 283.512698 257.325268 
L 289.224098 258.520973 
L 294.935498 258.404451 
L 300.646898 255.939746 
L 306.358297 256.479338 
L 312.069697 257.398146 
L 317.781097 255.998007 
L 323.492496 253.795789 
L 329.203896 255.648024 
L 334.915296 255.399946 
L 340.626696 254.933442 
L 346.338095 247.641441 
L 352.049495 247.626823 
L 357.760895 247.626823 
L 363.472294 247.656058 
L 369.183694 251.024745 
L 374.895094 246.780893 
L 380.606494 247.772788 
L 386.317893 232.940708 
L 392.029293 241.078431 
L 397.740693 246.06631 
L 403.452092 240.713831 
L 409.163492 239.401396 
L 414.874892 241.07864 
L 420.586291 240.888822 
L 426.297691 244.578675 
L 432.009091 247.203753 
" clip-path="url(#p8a1a36adb2)" style="fill: none; stroke-dasharray: 9.6,2.4,1.5,2.4; stroke-dashoffset: 0; stroke: #d62728; stroke-width: 1.5"/>
   </g>
   <g id="line2d_17">
    <path d="M 72.190909 261.977364 
L 77.902309 289.920639 
L 83.613709 290.329091 
L 89.325108 288.928952 
L 95.036508 287.353821 
L 100.747908 286.333108 
L 106.459307 285.035081 
L 112.170707 279.434733 
L 117.882107 282.336916 
L 123.593506 281.068124 
L 129.304906 279.69722 
L 135.016306 278.370167 
L 140.727706 275.555271 
L 146.439105 274.578201 
L 152.150505 272.478097 
L 157.861905 271.107192 
L 163.573304 273.878027 
L 169.284704 273.36788 
L 174.996104 272.609445 
L 180.707504 271.734279 
L 186.418903 271.559288 
L 192.130303 271.078166 
L 197.841703 271.311418 
L 203.553102 271.865627 
L 209.264502 271.384297 
L 214.975902 270.713357 
L 220.687302 270.173766 
L 226.398701 269.094583 
L 232.110101 269.2986 
L 237.821501 144.210711 
L 243.5329 250.762258 
L 249.2443 251.156093 
L 254.9557 263.669226 
L 260.6671 261.321251 
L 266.378499 261.802582 
L 272.089899 259.469225 
L 277.801299 257.777364 
L 283.512698 265.76933 
L 289.224098 266.702757 
L 294.935498 203.626529 
L 300.646898 267.125618 
L 306.358297 254.627103 
L 312.069697 258.025234 
L 317.781097 257.237564 
L 323.492496 254.962468 
L 329.203896 265.011104 
L 334.915296 264.719382 
L 340.626696 263.990182 
L 346.338095 261.919104 
L 352.049495 264.690148 
L 357.760895 264.398426 
L 363.472294 258.769051 
L 369.183694 252.045667 
L 374.895094 251.433198 
L 380.606494 250.893606 
L 386.317893 250.13538 
L 392.029293 249.639223 
L 397.740693 249.114249 
L 403.452092 248.691389 
L 409.163492 247.903719 
L 414.874892 245.628832 
L 420.586291 248.560041 
L 426.297691 247.495684 
L 432.009091 244.126579 
" clip-path="url(#p8a1a36adb2)" style="fill: none; stroke-dasharray: 9.6,2.4,1.5,2.4; stroke-dashoffset: 0; stroke: #9467bd; stroke-width: 1.5"/>
   </g>
   <g id="patch_3">
    <path d="M 54.2 303.64 
L 54.2 10.8 
" style="fill: none; stroke: #000000; stroke-width: 0.8; stroke-linejoin: miter; stroke-linecap: square"/>
   </g>
   <g id="patch_4">
    <path d="M 450 303.64 
L 450 10.8 
" style="fill: none; stroke: #000000; stroke-width: 0.8; stroke-linejoin: miter; stroke-linecap: square"/>
   </g>
   <g id="patch_5">
    <path d="M 54.2 303.64 
L 450 303.64 
" style="fill: none; stroke: #000000; stroke-width: 0.8; stroke-linejoin: miter; stroke-linecap: square"/>
   </g>
   <g id="patch_6">
    <path d="M 54.2 10.8 
L 450 10.8 
" style="fill: none; stroke: #000000; stroke-width: 0.8; stroke-linejoin: miter; stroke-linecap: square"/>
   </g>
   <g id="legend_1">
    <g id="patch_7">
     <path d="M 61.2 93.58125 
L 212.385938 93.58125 
Q 214.385938 93.58125 214.385938 91.58125 
L 214.385938 17.8 
Q 214.385938 15.8 212.385938 15.8 
L 61.2 15.8 
Q 59.2 15.8 59.2 17.8 
L 59.2 91.58125 
Q 59.2 93.58125 61.2 93.58125 
z
" style="fill: #ffffff; opacity: 0.8; stroke: #cccccc; stroke-linejoin: miter"/>
    </g>
    <g id="line2d_18">
     <path d="M 63.2 23.898438 
L 73.2 23.898438 
L 83.2 23.898438 
" style="fill: none; stroke-dasharray: 9.6,2.4,1.5,2.4; stroke-dashoffset: 0; stroke: #1f77b4; stroke-width: 1.5"/>
    </g>
    <g id="text_15">
     <!-- hybrid_simd_binary_t1 -->
     <g transform="translate(91.2 27.398438) scale(0.1 -0.1)">
      <defs>
       <path id="DejaVuSans-5f" d="M 3263 -1063 
L 3263 -1509 
L -63 -1509 
L -63 -1063 
L 3263 -1063 
z
" transform="scale(0.015625)"/>
       <path id="DejaVuSans-74" d="M 1172 4494 
L 1172 3500 
L 2356 3500 
L 2356 3053 
L 1172 3053 
L 1172 1153 
Q 1172 725 1289 603 
Q 1406 481 1766 481 
L 2356 481 
L 2356 0 
L 1766 0 
Q 1100 0 847 248 
Q 594 497 594 1153 
L 594 3053 
L 172 3053 
L 172 3500 
L 594 3500 
L 594 4494 
L 1172 4494 
z
" transform="scale(0.015625)"/>
      </defs>
      <use xlink:href="#DejaVuSans-68"/>
      <use xlink:href="#DejaVuSans-79" x="63.378906"/>
      <use xlink:href="#DejaVuSans-62" x="122.558594"/>
      <use xlink:href="#DejaVuSans-72" x="186.035156"/>
      <use xlink:href="#DejaVuSans-69" x="227.148438"/>
      <use xlink:href="#DejaVuSans-64" x="254.931641"/>
      <use xlink:href="#DejaVuSans-5f" x="318.408203"/>
      <use xlink:href="#DejaVuSans-73" x="368.408203"/>
      <use xlink:href="#DejaVuSans-69" x="420.507812"/>
      <use xlink:href="#DejaVuSans-6d" x="448.291016"/>
      <use xlink:href="#DejaVuSans-64" x="545.703125"/>
      <use xlink:href="#DejaVuSans-5f" x="609.179688"/>
      <use xlink:href="#DejaVuSans-62" x="659.179688"/>
      <use xlink:href="#DejaVuSans-69" x="722.65625"/>
      <use xlink:href="#DejaVuSans-6e" x="750.439453"/>
      <use xlink:href="#DejaVuSans-61" x="813.818359"/>
      <use xlink:href="#DejaVuSans-72" x="875.097656"/>
      <use xlink:href="#DejaVuSans-79" x="916.210938"/>
      <use xlink:href="#DejaVuSans-5f" x="975.390625"/>
      <use xlink:href="#DejaVuSans-74" x="1025.390625"/>
      <use xlink:href="#DejaVuSans-31" x="1064.599609"/>
     </g>
    </g>
    <g id="line2d_19">
     <path d="M 63.2 38.854688 
L 73.2 38.854688 
L 83.2 38.854688 
" style="fill: none; stroke-dasharray: 9.6,2.4,1.5,2.4; stroke-dashoffset: 0; stroke: #ff7f0e; stroke-width: 1.5"/>
    </g>
    <g id="text_16">
     <!-- hybrid_simd_binary_t2 -->
     <g transform="translate(91.2 42.354688) scale(0.1 -0.1)">
      <use xlink:href="#DejaVuSans-68"/>
      <use xlink:href="#DejaVuSans-79" x="63.378906"/>
      <use xlink:href="#DejaVuSans-62" x="122.558594"/>
      <use xlink:href="#DejaVuSans-72" x="186.035156"/>
      <use xlink:href="#DejaVuSans-69" x="227.148438"/>
      <use xlink:href="#DejaVuSans-64" x="254.931641"/>
      <use xlink:href="#DejaVuSans-5f" x="318.408203"/>
      <use xlink:href="#DejaVuSans-73" x="368.408203"/>
      <use xlink:href="#DejaVuSans-69" x="420.507812"/>
      <use xlink:href="#DejaVuSans-6d" x="448.291016"/>
      <use xlink:href="#DejaVuSans-64" x="545.703125"/>
      <use xlink:href="#DejaVuSans-5f" x="609.179688"/>
      <use xlink:href="#DejaVuSans-62" x="659.179688"/>
      <use xlink:href="#DejaVuSans-69" x="722.65625"/>
      <use xlink:href="#DejaVuSans-6e" x="750.439453"/>
      <use xlink:href="#DejaVuSans-61" x="813.818359"/>
      <use xlink:href="#DejaVuSans-72" x="875.097656"/>
      <use xlink:href="#DejaVuSans-79" x="916.210938"/>
      <use xlink:href="#DejaVuSans-5f" x="975.390625"/>
      <use xlink:href="#DejaVuSans-74" x="1025.390625"/>
      <use xlink:href="#DejaVuSans-32" x="1064.599609"/>
     </g>
    </g>
    <g id="line2d_20">
     <path d="M 63.2 53.810938 
L 73.2 53.810938 
L 83.2 53.810938 
" style="fill: none; stroke-dasharray: 9.6,2.4,1.5,2.4; stroke-dashoffset: 0; stroke: #2ca02c; stroke-width: 1.5"/>
    </g>
    <g id="text_17">
     <!-- hybrid_simd_binary_t4 -->
     <g transform="translate(91.2 57.310938) scale(0.1 -0.1)">
      <use xlink:href="#DejaVuSans-68"/>
      <use xlink:href="#DejaVuSans-79" x="63.378906"/>
      <use xlink:href="#DejaVuSans-62" x="122.558594"/>
      <use xlink:href="#DejaVuSans-72" x="186.035156"/>
      <use xlink:href="#DejaVuSans-69" x="227.148438"/>
      <use xlink:href="#DejaVuSans-64" x="254.931641"/>
      <use xlink:href="#DejaVuSans-5f" x="318.408203"/>
      <use xlink:href="#DejaVuSans-73" x="368.408203"/>
      <use xlink:href="#DejaVuSans-69" x="420.507812"/>
      <use xlink:href="#DejaVuSans-6d" x="448.291016"/>
      <use xlink:href="#DejaVuSans-64" x="545.703125"/>
      <use xlink:href="#DejaVuSans-5f" x="609.179688"/>
      <use xlink:href="#DejaVuSans-62" x="659.179688"/>
      <use xlink:href="#DejaVuSans-69" x="722.65625"/>
      <use xlink:href="#DejaVuSans-6e" x="750.439453"/>
      <use xlink:href="#DejaVuSans-61" x="813.818359"/>
      <use xlink:href="#DejaVuSans-72" x="875.097656"/>
      <use xlink:href="#DejaVuSans-79" x="916.210938"/>
      <use xlink:href="#DejaVuSans-5f" x="975.390625"/>
      <use xlink:href="#DejaVuSans-74" x="1025.390625"/>
      <use xlink:href="#DejaVuSans-34" x="1064.599609"/>
     </g>
    </g>
    <g id="line2d_21">
     <path d="M 63.2 68.767188 
L 73.2 68.767188 
L 83.2 68.767188 
" style="fill: none; stroke-dasharray: 9.6,2.4,1.5,2.4; stroke-dashoffset: 0; stroke: #d62728; stroke-width: 1.5"/>
    </g>
    <g id="text_18">
     <!-- hybrid_simd_binary_t8 -->
     <g transform="translate(91.2 72.267188) scale(0.1 -0.1)">
      <defs>
       <path id="DejaVuSans-38" d="M 2034 2216 
Q 1584 2216 1326 1975 
Q 1069 1734 1069 1313 
Q 1069 891 1326 650 
Q 1584 409 2034 409 
Q 2484 409 2743 651 
Q 3003 894 3003 1313 
Q 3003 1734 2745 1975 
Q 2488 2216 2034 2216 
z
M 1403 2484 
Q 997 2584 770 2862 
Q 544 3141 544 3541 
Q 544 4100 942 4425 
Q 1341 4750 2034 4750 
Q 2731 4750 3128 4425 
Q 3525 4100 3525 3541 
Q 3525 3141 3298 2862 
Q 3072 2584 2669 2484 
Q 3125 2378 3379 2068 
Q 3634 1759 3634 1313 
Q 3634 634 3220 271 
Q 2806 -91 2034 -91 
Q 1263 -91 848 271 
Q 434 634 434 1313 
Q 434 1759 690 2068 
Q 947 2378 1403 2484 
z
M 1172 3481 
Q 1172 3119 1398 2916 
Q 1625 2713 2034 2713 
Q 2441 2713 2670 2916 
Q 2900 3119 2900 3481 
Q 2900 3844 2670 4047 
Q 2441 4250 2034 4250 
Q 1625 4250 1398 4047 
Q 1172 3844 1172 3481 
z
" transform="scale(0.015625)"/>
      </defs>
      <use xlink:href="#DejaVuSans-68"/>
      <use xlink:href="#DejaVuSans-79" x="63.378906"/>
      <use xlink:href="#DejaVuSans-62" x="122.558594"/>
      <use xlink:href="#DejaVuSans-72" x="186.035156"/>
      <use xlink:href="#DejaVuSans-69" x="227.148438"/>
      <use xlink:href="#DejaVuSans-64" x="254.931641"/>
      <use xlink:href="#DejaVuSans-5f" x="318.408203"/>
      <use xlink:href="#DejaVuSans-73" x="368.408203"/>
      <use xlink:href="#DejaVuSans-69" x="420.507812"/>
      <use xlink:href="#DejaVuSans-6d" x="448.291016"/>
      <use xlink:href="#DejaVuSans-64" x="545.703125"/>
      <use xlink:href="#DejaVuSans-5f" x="609.179688"/>
      <use xlink:href="#DejaVuSans-62" x="659.179688"/>
      <use xlink:href="#DejaVuSans-69" x="722.65625"/>
      <use xlink:href="#DejaVuSans-6e" x="750.439453"/>
      <use xlink:href="#DejaVuSans-61" x="813.818359"/>
      <use xlink:href="#DejaVuSans-72" x="875.097656"/>
      <use xlink:href="#DejaVuSans-79" x="916.210938"/>
      <use xlink:href="#DejaVuSans-5f" x="975.390625"/>
      <use xlink:href="#DejaVuSans-74" x="1025.390625"/>
      <use xlink:href="#DejaVuSans-38" x="1064.599609"/>
     </g>
    </g>
    <g id="line2d_22">
     <path d="M 63.2 83.723438 
L 73.2 83.723438 
L 83.2 83.723438 
" style="fill: none; stroke-dasharray: 9.6,2.4,1.5,2.4; stroke-dashoffset: 0; stroke: #9467bd; stroke-width: 1.5"/>
    </g>
    <g id="text_19">
     <!-- hybrid_simd_binary_t12 -->
     <g transform="translate(91.2 87.223438) scale(0.1 -0.1)">
      <use xlink:href="#DejaVuSans-68"/>
      <use xlink:href="#DejaVuSans-79" x="63.378906"/>
      <use xlink:href="#DejaVuSans-62" x="122.558594"/>
      <use xlink:href="#DejaVuSans-72" x="186.035156"/>
      <use xlink:href="#DejaVuSans-69" x="227.148438"/>
      <use xlink:href="#DejaVuSans-64" x="254.931641"/>
      <use xlink:href="#DejaVuSans-5f" x="318.408203"/>
      <use xlink:href="#DejaVuSans-73" x="368.408203"/>
      <use xlink:href="#DejaVuSans-69" x="420.507812"/>
      <use xlink:href="#DejaVuSans-6d" x="448.291016"/>
      <use xlink:href="#DejaVuSans-64" x="545.703125"/>
      <use xlink:href="#DejaVuSans-5f" x="609.179688"/>
      <use xlink:href="#DejaVuSans-62" x="659.179688"/>
      <use xlink:href="#DejaVuSans-69" x="722.65625"/>
      <use xlink:href="#DejaVuSans-6e" x="750.439453"/>
      <use xlink:href="#DejaVuSans-61" x="813.818359"/>
      <use xlink:href="#DejaVuSans-72" x="875.097656"/>
      <use xlink:href="#DejaVuSans-79" x="916.210938"/>
      <use xlink:href="#DejaVuSans-5f" x="975.390625"/>
      <use xlink:href="#DejaVuSans-74" x="1025.390625"/>
      <use xlink:href="#DejaVuSans-31" x="1064.599609"/>
      <use xlink:href="#DejaVuSans-32" x="1128.222656"/>
     </g>
    </g>
   </g>
  </g>
 </g>
 <defs>
  <clipPath id="p8a1a36adb2">
   <rect x="54.2" y="10.8" width="395.8" height="292.84"/>
  </clipPath>
 </defs>
</svg>
